<svg version="1.1" id="Layer_1" xmlns="http://www.w3.org/2000/svg" xmlns:xlink="http://www.w3.org/1999/xlink" x="0px" y="0px"
	 width="100%" viewBox="0 0 526 532" enable-background="new 0 0 526 532" xml:space="preserve">
<path fill="#FF8201" opacity="1.000000" stroke="none" 
	d="
M4.000000,1.000000 
	C178.262680,1.000000 352.525360,1.000000 527.000000,1.000000 
	C527.000000,176.358185 527.000000,351.716431 526.537354,527.535034 
	C352.384857,527.989197 178.694992,527.982971 4.799205,527.620972 
	C4.400571,524.959106 4.039544,522.653137 4.039127,520.347107 
	C4.007849,347.231415 4.005048,174.115707 4.000000,1.000000 
M312.589691,199.751495 
	C313.073730,198.842346 313.557739,197.933197 314.335541,196.661453 
	C314.542755,196.428085 314.769501,196.215591 315.617218,195.785004 
	C316.096558,194.876526 316.575867,193.968048 317.356995,192.578217 
	C317.893036,192.050903 318.429077,191.523575 319.621002,190.842010 
	C320.374207,189.839233 321.127411,188.836441 322.082001,187.198837 
	C323.708435,185.130783 325.334900,183.062744 327.642487,180.827194 
	C328.395813,179.514908 329.149139,178.202621 330.280518,176.342148 
	C339.410675,165.002075 348.574615,153.688980 357.653900,142.308334 
	C361.163666,137.908936 364.968719,133.637268 367.757721,128.799240 
	C370.927887,123.300041 368.850983,120.181519 362.577698,120.163765 
	C338.132294,120.094589 313.686554,120.157021 289.240997,120.110260 
	C285.380096,120.102875 282.696777,121.684311 280.550079,124.888283 
	C269.845001,140.865952 259.000824,156.750443 248.289032,172.723679 
	C247.503326,173.895309 247.377838,175.509659 246.298401,177.134750 
	C243.982422,179.893692 241.666443,182.652649 239.350464,185.411606 
	C238.891418,185.260544 238.432373,185.109482 237.973328,184.958435 
	C237.973328,182.711105 237.973251,180.463791 237.973343,178.216461 
	C237.974960,140.791382 237.982880,103.366295 237.972458,65.941216 
	C237.970566,59.176025 236.280258,57.166603 229.542755,57.120037 
	C209.084747,56.978630 188.624817,57.014404 168.166962,57.163216 
	C166.753067,57.173500 165.350052,58.679855 163.314896,59.646671 
	C162.888626,59.709541 162.462357,59.772408 161.630829,59.489380 
	C160.953842,59.625210 160.276871,59.761040 158.889160,60.019508 
	C157.942032,62.289207 156.170700,64.557495 156.166809,66.828812 
	C156.022903,150.759109 156.032181,234.689728 156.110001,318.620209 
	C156.111679,320.420074 157.157181,322.218964 158.003128,324.708282 
	C159.162750,328.099365 161.662979,328.906189 165.033554,328.891846 
	C186.331116,328.801056 207.629333,328.886078 228.927216,328.844513 
	C236.116577,328.830475 237.804398,327.100250 237.815948,320.042297 
	C237.841003,304.734375 237.621277,289.421478 237.988800,274.122314 
	C238.070007,270.741730 239.630081,267.058167 241.506531,264.159790 
	C243.193604,261.553925 245.848877,261.477173 247.660095,264.969727 
	C249.788208,269.073334 252.177399,273.047638 254.575974,277.003723 
	C262.058105,289.344177 269.598083,301.649506 276.793121,314.426361 
	C277.556702,315.257385 278.320312,316.088409 279.498535,317.429565 
	C280.344513,318.944580 281.190460,320.459595 282.081940,322.638824 
	C282.738312,323.413116 283.394684,324.187378 284.500732,325.305237 
	C285.007538,325.860199 285.514343,326.415161 286.145905,327.450134 
	C286.765808,327.595856 287.385712,327.741577 288.940460,327.951721 
	C315.382874,327.983368 341.825409,327.975708 368.267517,328.085938 
	C372.590759,328.103943 374.445007,326.305420 373.931976,321.298370 
	C372.592010,319.226685 371.252045,317.155029 369.555908,314.771973 
	C369.329620,314.550659 369.126862,314.309570 368.713013,313.633179 
	C368.529572,313.370117 368.311279,313.140045 367.971558,312.346771 
	C367.915253,311.949066 367.858948,311.551392 367.706482,310.544250 
	C367.106049,310.062042 366.505585,309.579834 365.386566,308.658569 
	C362.086639,302.578033 359.090912,296.306244 355.416016,290.461487 
	C349.785217,281.505951 343.449188,272.993103 337.839600,264.025177 
	C328.346100,248.848175 319.186310,233.462433 309.803406,217.420609 
	C308.468536,212.902084 308.511780,208.069092 309.899902,203.916641 
	C310.000641,203.615341 309.953644,203.264664 310.131531,202.346039 
	C310.749603,201.561890 311.367645,200.777740 312.589691,199.751495 
M223.361435,447.314362 
	C224.803040,447.455353 226.253326,447.767242 227.684052,447.694427 
	C229.501129,447.601990 231.302338,447.197479 233.694626,447.307922 
	C236.853928,447.617432 240.023102,447.850311 243.170151,448.255066 
	C247.530060,448.815826 250.561310,447.297577 252.630112,442.881500 
	C254.110840,442.925323 255.591568,442.969147 257.238403,443.684357 
	C260.807617,449.218872 265.226105,450.235321 273.915985,447.919159 
	C279.094055,446.539001 277.697449,442.452209 278.753571,438.846222 
	C280.502319,438.565369 282.251068,438.284515 284.009003,438.871552 
	C284.090546,447.334747 286.655640,449.611145 295.259491,448.834564 
	C296.249786,448.745178 297.270721,448.342468 298.213715,448.490540 
	C303.024384,449.246124 304.850739,446.198853 304.795441,442.428101 
	C304.584106,428.009857 303.966400,413.597595 303.501465,399.183044 
	C303.269867,392.002899 294.614166,385.431854 287.495087,385.867950 
	C278.787811,386.401337 269.880646,390.434601 261.273346,385.277893 
	C261.151947,385.205139 260.946503,385.268890 260.780487,385.274902 
	C253.550858,385.536163 246.320816,385.786896 239.091782,386.063599 
	C233.611359,386.273346 231.641693,388.233826 230.268738,393.982269 
	C226.761780,392.027802 223.003265,390.409912 219.815994,388.027740 
	C216.369492,385.451843 208.078247,384.474762 204.115021,387.029572 
	C195.070450,386.477356 188.570831,390.599060 183.994415,398.109833 
	C181.447998,402.289001 182.684189,406.252380 187.169907,408.666016 
	C187.475891,410.499481 187.781876,412.332947 187.778763,414.620331 
	C187.235016,415.104065 186.691269,415.587769 185.518005,416.233490 
	C185.077652,416.914062 184.637299,417.594635 183.936035,418.725861 
	C183.658157,419.164978 183.380295,419.604126 182.361160,419.985168 
	C180.948517,419.631897 179.535889,419.278625 178.104401,418.010406 
	C178.078842,415.573883 178.359772,413.081299 177.927567,410.719208 
	C177.601105,408.934998 176.362930,407.317627 175.460709,405.541595 
	C175.460709,405.541595 175.373474,405.475372 175.238541,404.731781 
	C174.290009,404.192810 173.351395,403.208405 172.391357,403.186981 
	C166.100098,403.047028 159.801193,402.996948 153.510925,403.158020 
	C149.471176,403.261444 147.814331,406.267822 147.163239,409.681610 
	C146.022339,415.663544 148.289520,418.985199 154.315765,420.778351 
	C158.622757,422.059967 159.576569,424.404877 156.663345,427.820282 
	C153.369476,431.681946 149.523529,429.893585 145.877075,427.364258 
	C144.920776,426.233887 143.964493,425.103516 142.973419,423.322510 
	C142.951660,422.888672 142.929901,422.454803 143.193146,421.632874 
	C142.814377,421.067963 142.435593,420.503052 142.035934,419.008759 
	C142.025299,411.685883 142.215271,404.355194 141.931503,397.042908 
	C141.750916,392.389313 144.231445,389.527130 147.503708,387.095795 
	C150.685684,384.731476 155.657440,385.564453 156.287567,388.923462 
	C157.711136,396.511932 162.839264,397.086121 168.908997,396.979431 
	C177.170227,396.834167 180.120148,392.436127 177.117065,384.529358 
	C173.953400,376.199799 169.031570,370.228607 159.813889,367.548126 
	C145.217194,363.303467 127.698112,370.815277 123.434326,385.336609 
	C119.338486,399.285950 120.841507,413.369324 122.737289,427.319794 
	C123.347778,431.812317 125.882729,436.734039 129.015503,440.072113 
	C141.825424,453.721466 166.408768,451.856445 178.751465,436.927490 
	C180.193268,436.945343 181.635056,436.963196 183.336136,437.449249 
	C183.581131,437.925018 183.826126,438.400818 184.089905,439.564575 
	C184.749268,440.373352 185.408630,441.182129 186.438599,442.549500 
	C189.993698,444.390076 193.395081,447.247345 197.142776,447.813934 
	C201.827728,448.522217 206.793076,447.260986 211.645691,447.012024 
	C215.389175,446.819977 219.145462,446.877716 223.361435,447.314362 
M402.737671,387.285492 
	C398.597931,384.660400 396.241577,386.948517 394.467377,390.411621 
	C393.236969,392.813232 392.247467,395.338226 390.514618,399.239105 
	C389.198090,396.262756 388.301514,394.874146 387.965118,393.360992 
	C386.733643,387.821381 383.235168,385.661804 377.793365,386.038757 
	C373.985291,386.302551 370.159668,386.748810 366.364777,386.584564 
	C364.451355,386.501740 362.588837,385.242767 360.703278,384.515625 
	C361.976257,383.280029 363.054321,381.674622 364.560211,380.880829 
	C368.494751,378.806793 369.862610,374.833618 368.952271,367.687164 
	C368.429260,363.581268 365.436188,362.449951 362.238892,362.287201 
	C354.579193,361.897339 347.053406,362.513031 342.851074,370.384888 
	C341.080688,373.701202 339.218262,377.181488 338.531860,380.802246 
	C337.872375,384.280945 336.567963,386.729462 333.469940,388.097748 
	C332.163147,388.674896 329.541870,389.214050 329.323761,388.805786 
	C328.412537,387.100159 327.788605,385.015778 327.848755,383.094940 
	C327.889526,381.793335 329.391327,380.597107 329.985291,379.242218 
	C331.950378,374.759766 331.361694,370.111084 327.502472,367.524170 
	C324.551788,365.546295 320.153259,364.634460 316.564087,364.977570 
	C311.989960,365.414825 309.402191,369.419586 309.315521,373.904877 
	C309.254120,377.080627 310.723297,380.268097 311.339630,383.482849 
	C311.618256,384.936096 311.769806,386.526398 311.479706,387.952972 
	C310.836670,391.114990 309.227386,394.198944 309.160370,397.339203 
	C308.865601,411.157104 309.077698,424.985016 308.892853,438.806427 
	C308.824402,443.924713 311.260010,447.303467 316.344727,447.868408 
	C318.156219,448.069672 320.005035,447.976166 321.835999,447.953735 
	C328.441071,447.872894 330.907227,445.461334 330.936523,438.908112 
	C330.981934,428.748505 330.875031,418.587280 331.036407,408.429993 
	C331.061707,406.838989 332.163025,405.265076 332.766815,403.683289 
	C334.449188,405.085632 336.382294,406.290192 337.709320,407.972778 
	C338.383911,408.828125 338.030090,410.543793 338.033905,411.870850 
	C338.056396,419.698853 338.046265,427.526978 338.049133,435.355042 
	C338.053345,446.896393 338.511902,447.389282 349.796082,448.001465 
	C357.364868,448.412048 360.088684,444.708374 359.661194,437.171936 
	C359.128448,427.779999 359.668762,418.318787 359.945343,408.893311 
	C360.065308,404.805298 363.705750,403.913086 366.657715,403.522766 
	C367.534668,403.406799 369.022614,406.741577 369.952698,408.631897 
	C370.520081,409.785034 370.477386,411.222198 370.845245,412.492249 
	C373.754425,422.535980 376.745087,432.556335 379.607300,442.613342 
	C380.983185,447.447784 379.662750,449.310944 374.990326,451.254028 
	C373.224823,451.988251 371.359436,453.736938 370.633820,455.479004 
	C368.564453,460.446960 370.141449,466.457855 373.529938,468.596375 
	C377.387939,471.031250 388.122467,470.749237 390.556946,467.532562 
	C393.431030,463.735107 396.235291,459.584503 397.775055,455.138550 
	C401.237183,445.141754 403.965027,434.886688 406.869720,424.701935 
	C409.822296,414.349548 412.802490,403.997314 415.320984,393.536774 
	C415.723145,391.866364 414.197998,389.205566 412.785217,387.767761 
	C411.274719,386.230560 408.818054,384.819519 406.147552,387.914703 
	C405.120941,387.906616 404.094299,387.898560 402.737671,387.285492 
z"/>
<path fill="#B03D01" opacity="1.000000" stroke="none" 
	d="
M527.000000,529.000000 
	C527.000000,530.332153 527.000000,531.664246 527.000000,532.991699 
	C351.666656,532.986938 176.333328,532.986938 0.999999,532.980469 
	C1.000000,530.642700 1.000000,528.311401 1.352281,525.484741 
	C2.803592,526.281006 3.902622,527.572571 5.462344,528.910278 
	C7.421579,528.972473 8.920122,529.002747 10.418665,529.002808 
	C182.612442,529.003296 354.806213,529.001648 527.000000,529.000000 
z"/>
<path fill="#F7811F" opacity="1.000000" stroke="none" 
	d="
M5.001651,528.864197 
	C3.902622,527.572571 2.803592,526.281006 1.352281,524.994690 
	C1.000000,518.645630 1.000000,512.291199 1.394923,505.425171 
	C2.136499,501.920502 2.483151,498.927521 2.877627,495.475098 
	C2.894953,490.369354 2.864455,485.723022 2.874772,480.676636 
	C2.277056,478.851044 1.638528,477.425537 1.000000,476.000000 
	C1.000000,472.969391 1.000000,469.938812 1.000500,466.772156 
	C1.198185,466.707947 1.395371,466.779846 1.601871,467.087036 
	C1.854482,467.508545 2.085639,467.716888 2.351241,467.862366 
	C2.404947,467.891815 2.701501,467.677307 2.696421,467.585815 
	C2.509742,464.224121 2.300660,460.863678 2.244240,457.113037 
	C1.929224,454.148651 1.464610,451.574341 0.999998,449.000000 
	C1.000000,443.977905 1.000000,438.955811 1.402401,433.415161 
	C1.985815,425.770020 2.175975,418.643616 2.290996,411.515961 
	C2.293658,411.350952 1.449282,411.172302 1.000001,411.000000 
	C1.000000,410.555542 1.000000,410.111115 1.401751,409.282166 
	C1.900836,401.098267 1.998170,393.298828 2.327920,385.175415 
	C2.301838,382.964325 2.043340,381.077240 1.481966,379.289246 
	C1.119394,379.592255 1.059697,379.796112 1.000000,380.000000 
	C1.000000,373.978851 1.000000,367.957703 1.367142,361.459503 
	C1.489524,358.321625 1.244762,355.660828 1.000001,353.000000 
	C1.000000,349.638702 1.000000,346.277435 1.354336,342.461243 
	C3.238231,340.358551 3.974627,338.851074 1.000000,338.000000 
	C1.000000,322.312439 1.000000,306.624878 1.342542,290.264008 
	C2.330380,286.331390 4.769276,282.943970 1.000000,280.000000 
	C1.000000,267.645782 1.000000,255.291550 1.336731,242.278320 
	C1.968109,239.940002 2.262756,238.260681 2.676752,236.165619 
	C2.536333,232.382233 2.276566,229.014557 1.738215,225.664963 
	C1.306422,225.788696 1.153211,225.894348 1.000000,226.000000 
	C1.000000,218.645752 1.000000,211.291504 1.370890,203.308853 
	C1.863929,194.287674 1.986078,185.894882 2.329130,177.225876 
	C2.381590,175.470306 2.213145,173.990952 1.744899,172.551086 
	C1.296731,172.727036 1.148366,172.863510 1.000000,173.000000 
	C1.000000,169.638718 1.000000,166.277420 1.367235,162.447968 
	C3.234744,160.062485 4.072130,158.242935 1.000000,157.000000 
	C1.000000,151.977905 1.000000,146.955811 1.309132,141.509872 
	C1.412175,140.390686 1.206087,139.695343 0.999999,139.000000 
	C1.000000,134.310745 1.000000,129.621490 1.218548,124.419403 
	C1.291398,123.604378 1.145699,123.302193 1.000000,123.000000 
	C1.000000,123.000000 1.000000,122.500000 1.342755,122.047729 
	C1.457006,119.730309 1.228503,117.865150 1.000000,116.000000 
	C1.000000,114.285645 1.000000,112.571281 1.309131,110.471481 
	C1.412175,109.390694 1.206087,108.695343 1.000000,108.000000 
	C1.000000,86.645775 1.000000,65.291542 1.336729,43.278328 
	C1.968105,40.940018 2.262753,39.260696 2.675818,37.178505 
	C2.196156,34.183758 1.598078,31.591879 1.000000,29.000000 
	C1.000000,23.645071 1.000000,18.290142 1.339606,12.488783 
	C1.452808,11.028235 1.226404,10.014118 1.000000,9.000000 
	C1.000000,6.958333 1.000000,4.916667 1.232111,2.593466 
	C1.650198,2.324922 1.836175,2.337912 2.272355,2.201797 
	C2.681706,1.701796 2.840853,1.350898 3.000000,1.000000 
	C3.000000,1.000000 3.500000,1.000000 3.750000,1.000000 
	C4.005048,174.115707 4.007849,347.231415 4.039127,520.347107 
	C4.039544,522.653137 4.400571,524.959106 4.797891,527.843018 
	C5.002497,528.420898 5.001648,528.864197 5.001651,528.864197 
z"/>
<path fill="#FB7F1B" opacity="1.000000" stroke="none" 
	d="
M5.462342,528.910278 
	C5.001648,528.864197 5.002497,528.420898 5.003811,528.198853 
	C178.694992,527.982971 352.384857,527.989197 526.537354,527.997681 
	C527.000000,528.000000 527.000000,528.500000 527.000000,528.750000 
	C354.806213,529.001648 182.612442,529.003296 10.418665,529.002808 
	C8.920122,529.002747 7.421579,528.972473 5.462342,528.910278 
z"/>
<path fill="#B03D01" opacity="1.000000" stroke="none" 
	d="
M2.108227,177.502106 
	C1.986078,185.894882 1.863929,194.287674 1.370890,202.840225 
	C1.000000,193.312439 1.000000,183.624878 1.000000,173.468658 
	C1.148366,172.863510 1.296731,172.727036 1.719981,173.048706 
	C2.032652,174.838608 2.070440,176.170364 2.108227,177.502106 
z"/>
<path fill="#B03D01" opacity="1.000000" stroke="none" 
	d="
M1.000001,411.468567 
	C1.449282,411.172302 2.293658,411.350952 2.290996,411.515961 
	C2.175975,418.643616 1.985815,425.770020 1.402401,432.948303 
	C1.000000,425.979034 1.000000,418.958099 1.000001,411.468567 
z"/>
<path fill="#B03D01" opacity="1.000000" stroke="none" 
	d="
M1.000000,380.468658 
	C1.059697,379.796112 1.119394,379.592255 1.514673,379.831909 
	C1.932005,382.016754 2.013754,383.758087 2.095503,385.499390 
	C1.998170,393.298828 1.900836,401.098267 1.401751,408.948853 
	C1.000000,399.645782 1.000000,390.291534 1.000000,380.468658 
z"/>
<path fill="#B54100" opacity="1.000000" stroke="none" 
	d="
M2.833958,481.076721 
	C2.864455,485.723022 2.894953,490.369354 2.694777,495.283325 
	C1.976068,495.033997 1.488032,494.516998 0.999997,494.000000 
	C1.000000,491.629425 1.000000,489.258881 1.191642,486.169525 
	C1.866841,483.992737 2.350399,482.534729 2.833958,481.076721 
z"/>
<path fill="#B03D01" opacity="1.000000" stroke="none" 
	d="
M0.999997,494.458069 
	C1.488032,494.516998 1.976068,495.033997 2.646954,495.742767 
	C2.483151,498.927521 2.136499,501.920502 1.394923,504.956726 
	C1.000000,501.638702 1.000000,498.277435 0.999997,494.458069 
z"/>
<path fill="#B03D01" opacity="1.000000" stroke="none" 
	d="
M2.874771,480.676636 
	C2.350399,482.534729 1.866841,483.992737 1.191642,485.725372 
	C1.000000,482.969391 1.000000,479.938812 1.000000,476.454102 
	C1.638528,477.425537 2.277056,478.851044 2.874771,480.676636 
z"/>
<path fill="#B54100" opacity="1.000000" stroke="none" 
	d="
M1.000000,29.437500 
	C1.598078,31.591879 2.196156,34.183758 2.425142,36.897232 
	C1.704033,36.679218 1.352017,36.339611 1.000000,36.000000 
	C1.000000,33.958332 1.000000,31.916666 1.000000,29.437500 
z"/>
<path fill="#B54100" opacity="1.000000" stroke="none" 
	d="
M2.016799,225.646896 
	C2.276566,229.014557 2.536333,232.382233 2.426081,235.884354 
	C1.704041,235.679214 1.352020,235.339600 0.999999,235.000000 
	C1.000000,234.250000 1.000000,233.500000 1.206980,232.040680 
	C1.614906,229.436523 1.815853,227.541718 2.016799,225.646896 
z"/>
<path fill="#B03D01" opacity="1.000000" stroke="none" 
	d="
M1.000000,280.454102 
	C4.769276,282.943970 2.330380,286.331390 1.342542,289.795349 
	C1.000000,286.969391 1.000000,283.938812 1.000000,280.454102 
z"/>
<path fill="#B03D01" opacity="1.000000" stroke="none" 
	d="
M0.999998,449.460632 
	C1.464610,451.574341 1.929224,454.148651 2.219417,457.653503 
	C1.853038,459.663696 1.661080,460.743408 1.235061,461.688660 
	C1.000667,461.369476 1.000333,461.184723 1.000000,461.000000 
	C1.000000,457.307098 1.000000,453.614166 0.999998,449.460632 
z"/>
<path fill="#B03D01" opacity="1.000000" stroke="none" 
	d="
M1.000001,353.444153 
	C1.244762,355.660828 1.489524,358.321625 1.367142,360.991211 
	C1.000000,358.629425 1.000000,356.258881 1.000001,353.444153 
z"/>
<path fill="#B03D01" opacity="1.000000" stroke="none" 
	d="
M1.000000,157.416656 
	C4.072130,158.242935 3.234744,160.062485 1.367235,161.989899 
	C1.000000,160.611115 1.000000,159.222214 1.000000,157.416656 
z"/>
<path fill="#B03D01" opacity="1.000000" stroke="none" 
	d="
M1.000000,338.399994 
	C3.974627,338.851074 3.238231,340.358551 1.354336,342.003174 
	C1.000000,340.933319 1.000000,339.866669 1.000000,338.399994 
z"/>
<path fill="#B03D01" opacity="1.000000" stroke="none" 
	d="
M1.000000,36.437500 
	C1.352017,36.339611 1.704033,36.679218 2.306726,37.300102 
	C2.262753,39.260696 1.968105,40.940018 1.336729,42.809669 
	C1.000000,40.958332 1.000000,38.916668 1.000000,36.437500 
z"/>
<path fill="#B03D01" opacity="1.000000" stroke="none" 
	d="
M0.999999,235.437500 
	C1.352020,235.339600 1.704041,235.679214 2.306733,236.300079 
	C2.262756,238.260681 1.968109,239.940002 1.336731,241.809662 
	C1.000000,239.958328 1.000000,237.916672 0.999999,235.437500 
z"/>
<path fill="#B03D01" opacity="1.000000" stroke="none" 
	d="
M1.738216,225.664963 
	C1.815853,227.541718 1.614906,229.436523 1.206980,231.665680 
	C1.000000,230.285645 1.000000,228.571289 1.000000,226.428467 
	C1.153211,225.894348 1.306422,225.788696 1.738216,225.664963 
z"/>
<path fill="#B03D01" opacity="1.000000" stroke="none" 
	d="
M1.000000,9.375000 
	C1.226404,10.014118 1.452808,11.028235 1.339606,12.021177 
	C1.000000,11.250000 1.000000,10.500000 1.000000,9.375000 
z"/>
<path fill="#B03D01" opacity="1.000000" stroke="none" 
	d="
M1.000000,116.428467 
	C1.228503,117.865150 1.457006,119.730309 1.342755,121.797729 
	C1.000000,120.285645 1.000000,118.571281 1.000000,116.428467 
z"/>
<path fill="#B03D01" opacity="1.000000" stroke="none" 
	d="
M0.999999,139.333328 
	C1.206087,139.695343 1.412175,140.390686 1.309132,141.043015 
	C1.000000,140.555557 1.000000,140.111099 0.999999,139.333328 
z"/>
<path fill="#B03D01" opacity="1.000000" stroke="none" 
	d="
M1.000000,108.333328 
	C1.206087,108.695343 1.412175,109.390694 1.309131,110.043015 
	C1.000000,109.555557 1.000000,109.111107 1.000000,108.333328 
z"/>
<path fill="#B03D01" opacity="1.000000" stroke="none" 
	d="
M1.592556,466.851715 
	C1.395371,466.779846 1.198185,466.707947 1.000500,466.318054 
	C1.000000,465.250000 1.000000,464.500000 1.000500,463.091553 
	C1.163693,462.346039 1.326386,462.258972 1.609653,462.749084 
	C1.684337,464.501404 1.638447,465.676575 1.592556,466.851715 
z"/>
<path fill="#F7811F" opacity="1.000000" stroke="none" 
	d="
M1.489079,462.171875 
	C1.326386,462.258972 1.163693,462.346039 1.000500,462.716553 
	C1.000000,462.555542 1.000000,462.111115 1.000000,461.333313 
	C1.000333,461.184723 1.000667,461.369476 1.204375,461.739166 
	C1.407750,461.924133 1.489079,462.171875 1.489079,462.171875 
z"/>
<path fill="#B54100" opacity="1.000000" stroke="none" 
	d="
M1.000000,123.250000 
	C1.145699,123.302193 1.291398,123.604378 1.218548,123.953285 
	C1.000000,124.000000 1.000000,123.500000 1.000000,123.250000 
z"/>
<path fill="#B54100" opacity="1.000000" stroke="none" 
	d="
M2.750000,1.000000 
	C2.840853,1.350898 2.681706,1.701796 2.268214,1.862874 
	C2.009245,1.448703 2.004623,1.224352 2.000000,1.000000 
	C2.000000,1.000000 2.500000,1.000000 2.750000,1.000000 
z"/>
<path fill="#B03D01" opacity="1.000000" stroke="none" 
	d="
M1.500000,1.000000 
	C2.004623,1.224352 2.009245,1.448703 2.018009,2.011978 
	C1.836175,2.337912 1.650198,2.324922 1.232111,2.155966 
	C1.000000,1.666667 1.000000,1.333333 1.500000,1.000000 
z"/>
<path fill="#F08F23" opacity="1.000000" stroke="none" 
	d="
M406.914215,387.839386 
	C408.818054,384.819519 411.274719,386.230560 412.785217,387.767761 
	C414.197998,389.205566 415.723145,391.866364 415.320984,393.536774 
	C412.802490,403.997314 409.822296,414.349548 406.869720,424.701935 
	C403.965027,434.886688 401.237183,445.141754 397.775055,455.138550 
	C396.235291,459.584503 393.431030,463.735107 390.556946,467.532562 
	C388.122467,470.749237 377.387939,471.031250 373.529938,468.596375 
	C370.141449,466.457855 368.564453,460.446960 370.633820,455.479004 
	C371.359436,453.736938 373.224823,451.988251 374.990326,451.254028 
	C379.662750,449.310944 380.983185,447.447784 379.607300,442.613342 
	C376.745087,432.556335 373.754425,422.535980 370.845245,412.492249 
	C370.477386,411.222198 370.520081,409.785034 369.952698,408.631897 
	C369.022614,406.741577 367.534668,403.406799 366.657715,403.522766 
	C363.705750,403.913086 360.065308,404.805298 359.945343,408.893311 
	C359.668762,418.318787 359.128448,427.779999 359.661194,437.171936 
	C360.088684,444.708374 357.364868,448.412048 349.796082,448.001465 
	C338.511902,447.389282 338.053345,446.896393 338.049133,435.355042 
	C338.046265,427.526978 338.056396,419.698853 338.033905,411.870850 
	C338.030090,410.543793 338.383911,408.828125 337.709320,407.972778 
	C336.382294,406.290192 334.449188,405.085632 332.766785,403.683289 
	C332.163025,405.265076 331.061707,406.838989 331.036407,408.429993 
	C330.875031,418.587280 330.981934,428.748505 330.936523,438.908112 
	C330.907227,445.461334 328.441071,447.872894 321.835999,447.953735 
	C320.005035,447.976166 318.156219,448.069672 316.344727,447.868408 
	C311.260010,447.303467 308.824402,443.924713 308.892853,438.806427 
	C309.077698,424.985016 308.865601,411.157104 309.160370,397.339203 
	C309.227386,394.198944 310.836670,391.114990 311.479706,387.952972 
	C311.769806,386.526398 311.618256,384.936096 311.339630,383.482849 
	C310.723297,380.268097 309.254120,377.080627 309.315521,373.904877 
	C309.402191,369.419586 311.989960,365.414825 316.564087,364.977570 
	C320.153259,364.634460 324.551788,365.546295 327.502472,367.524170 
	C331.361694,370.111084 331.950378,374.759766 329.985291,379.242218 
	C329.391327,380.597107 327.889526,381.793335 327.848755,383.094940 
	C327.788605,385.015778 328.412537,387.100159 329.323761,388.805786 
	C329.541870,389.214050 332.163147,388.674896 333.469940,388.097748 
	C336.567963,386.729462 337.872375,384.280945 338.531860,380.802246 
	C339.218262,377.181488 341.080688,373.701202 342.851074,370.384888 
	C347.053406,362.513031 354.579193,361.897339 362.238892,362.287201 
	C365.436188,362.449951 368.429260,363.581268 368.952271,367.687164 
	C369.862610,374.833618 368.494751,378.806793 364.560211,380.880829 
	C363.054321,381.674622 361.976257,383.280029 360.703278,384.515625 
	C362.588837,385.242767 364.451355,386.501740 366.364777,386.584564 
	C370.159668,386.748810 373.985291,386.302551 377.793365,386.038757 
	C383.235168,385.661804 386.733643,387.821381 387.965118,393.360992 
	C388.301514,394.874146 389.198090,396.262756 390.514618,399.239105 
	C392.247467,395.338226 393.236969,392.813232 394.467377,390.411621 
	C396.241577,386.948517 398.597931,384.660400 402.512054,387.664062 
	C398.083405,388.035522 396.030701,390.325745 395.165192,394.279877 
	C394.053955,399.356689 392.663849,404.372437 391.393890,409.414490 
	C390.885925,409.413330 390.377930,409.412170 389.869965,409.411011 
	C389.260376,407.786957 388.499878,406.201569 388.071533,404.531006 
	C387.080017,400.664276 386.601624,396.623230 385.204041,392.921387 
	C384.509125,391.080688 382.300537,388.614838 380.684357,388.544220 
	C375.951385,388.337463 371.172058,389.191132 366.410889,389.629303 
	C364.999817,390.149414 363.337189,389.378815 361.947327,388.267212 
	C360.460480,387.078064 357.988342,385.365662 358.170685,384.242920 
	C358.467834,382.413483 360.239563,380.174866 361.977386,379.353119 
	C366.671692,377.133270 368.075989,374.850525 366.928284,369.131592 
	C366.007080,364.541443 362.321625,364.233826 358.793152,364.347290 
	C348.538330,364.677094 342.049896,370.885986 340.431213,381.912903 
	C339.977722,385.002319 339.447174,387.383148 336.254120,389.144867 
	C332.185028,391.390015 332.348022,398.816193 336.466705,400.906708 
	C339.670013,402.532684 340.108765,404.839478 340.100586,407.802216 
	C340.073029,417.792145 340.042358,427.782349 340.092957,437.772064 
	C340.128693,444.825073 341.381592,445.945831 348.783386,445.937897 
	C355.876678,445.930298 356.990234,444.874359 357.016235,437.945343 
	C357.053101,428.122040 356.916901,418.295227 357.167419,408.477875 
	C357.220917,406.383301 358.066223,403.731415 359.518372,402.381775 
	C361.854156,400.210876 364.998993,398.910461 368.248077,396.976746 
	C368.321411,397.087738 369.175934,397.898376 369.453308,398.873230 
	C373.596039,413.434937 377.764923,427.990845 381.694885,442.610718 
	C383.192871,448.183197 381.555023,450.780914 375.951813,453.434723 
	C371.929443,455.339783 372.222137,458.868286 372.613159,462.445160 
	C372.992889,465.919128 374.648865,467.795532 378.364288,468.008820 
	C385.995575,468.446899 392.618622,464.141449 395.090088,455.818085 
	C401.055878,435.726440 406.702271,415.538971 412.347290,395.353760 
	C413.818848,390.091766 412.835571,388.979736 406.914215,387.839386 
M312.145111,413.500061 
	C312.139648,420.828979 312.131439,428.157898 312.129333,435.486816 
	C312.126617,444.906952 312.716217,445.350525 321.988525,445.148956 
	C325.958252,445.062592 327.815033,443.567261 327.799286,439.531281 
	C327.741364,424.707306 327.853149,409.882324 327.733246,395.059113 
	C327.690491,389.772247 326.548798,389.174957 319.768799,389.021179 
	C315.462219,388.923462 312.069641,389.518768 312.172546,395.011505 
	C312.281677,400.838837 312.164185,406.670441 312.145111,413.500061 
M312.098938,373.905914 
	C312.181366,380.130920 314.333405,382.834412 319.410217,383.090637 
	C323.888580,383.316711 327.432465,380.616394 327.897034,376.396484 
	C328.329651,372.466431 326.858246,369.545349 322.858398,368.310455 
	C318.285583,366.898621 314.716492,368.536804 312.098938,373.905914 
z"/>
<path fill="#EE9E45" opacity="1.000000" stroke="none" 
	d="
M309.886230,218.164429 
	C319.186310,233.462433 328.346100,248.848175 337.839600,264.025177 
	C343.449188,272.993103 349.785217,281.505951 355.416016,290.461487 
	C359.090912,296.306244 362.086639,302.578033 365.750488,309.150391 
	C366.677185,310.146027 367.239899,310.649872 367.802673,311.153687 
	C367.858948,311.551392 367.915253,311.949066 368.127899,312.855957 
	C368.464081,313.633087 368.685211,313.860962 368.947632,314.048737 
	C369.126862,314.309570 369.329620,314.550659 369.815430,315.263123 
	C371.367523,317.850708 372.660065,319.947113 373.952606,322.043549 
	C374.445007,326.305420 372.590759,328.103943 368.267517,328.085938 
	C341.825409,327.975708 315.382874,327.983368 288.256714,327.746582 
	C287.055695,327.350983 286.538391,327.160583 286.021118,326.970154 
	C285.514343,326.415161 285.007538,325.860199 284.207275,324.829224 
	C283.287994,323.560364 282.662231,322.767487 282.036438,321.974609 
	C281.190460,320.459595 280.344513,318.944580 279.215820,316.879456 
	C278.327271,315.542358 277.721466,314.755432 277.115662,313.968475 
	C269.598083,301.649506 262.058105,289.344177 254.575974,277.003723 
	C252.177399,273.047638 249.788208,269.073334 247.660095,264.969727 
	C245.848877,261.477173 243.193604,261.553925 241.506531,264.159790 
	C239.630081,267.058167 238.070007,270.741730 237.988800,274.122314 
	C237.621277,289.421478 237.841003,304.734375 237.815948,320.042297 
	C237.804398,327.100250 236.116577,328.830475 228.927216,328.844513 
	C207.629333,328.886078 186.331116,328.801056 165.033554,328.891846 
	C161.662979,328.906189 159.162750,328.099365 158.194458,324.351624 
	C158.608002,323.994415 158.830200,323.993866 159.300323,324.116211 
	C160.024231,324.518890 160.500229,324.798645 161.271606,325.200470 
	C161.987167,325.317383 162.407333,325.312225 163.286469,325.363159 
	C186.227036,325.391022 208.708649,325.362793 231.507172,325.398865 
	C232.243317,325.373169 232.662567,325.283173 233.340027,325.121460 
	C233.760193,324.358215 233.922134,323.666656 234.155853,322.568787 
	C234.341690,320.017578 234.544769,317.873169 234.555603,315.727814 
	C234.635818,299.847656 234.677780,283.967285 235.005539,267.853088 
	C237.426498,264.668945 239.588364,261.729218 241.716888,258.765594 
	C243.981583,255.612396 245.942749,256.125824 247.736694,259.207214 
	C248.237976,260.068237 248.762878,260.915466 249.268402,261.774078 
	C260.650208,281.105835 272.095245,300.400909 283.363312,319.798767 
	C285.964539,324.276703 289.149902,326.350067 294.580322,326.159546 
	C306.036926,325.757538 317.517731,326.051392 328.988617,326.049683 
	C341.456879,326.047821 353.925751,326.090851 366.392700,325.958984 
	C368.060669,325.941345 369.719055,325.014404 371.381866,324.508545 
	C370.793213,322.838898 370.340088,321.102081 369.559723,319.527435 
	C369.158722,318.718262 368.174072,318.198364 367.338348,317.224976 
	C365.858429,314.768921 364.493347,312.635620 363.104187,310.174408 
	C360.027374,305.185394 356.974609,300.524261 353.803925,295.536438 
	C353.202759,294.423126 352.719482,293.636536 352.219604,292.501434 
	C350.922546,290.322876 349.642059,288.492859 348.299377,286.485291 
	C348.237183,286.307800 348.000854,286.015167 348.010315,285.656799 
	C347.833984,284.838989 347.711365,284.340271 347.453461,283.925690 
	C333.002350,260.695740 318.568939,237.454727 304.044769,214.270554 
	C302.058380,211.099792 300.917969,208.319351 304.885559,205.899567 
	C305.021942,206.016205 305.291901,206.252777 305.175964,206.587769 
	C303.243225,212.140625 306.356476,215.241928 309.886230,218.164429 
z"/>
<path fill="#F08F23" opacity="1.000000" stroke="none" 
	d="
M231.052444,393.999054 
	C231.641693,388.233826 233.611359,386.273346 239.091782,386.063599 
	C246.320816,385.786896 253.550858,385.536163 260.780487,385.274902 
	C260.946503,385.268890 261.151947,385.205139 261.273346,385.277893 
	C269.880646,390.434601 278.787811,386.401337 287.495087,385.867950 
	C294.614166,385.431854 303.269867,392.002899 303.501465,399.183044 
	C303.966400,413.597595 304.584106,428.009857 304.795441,442.428101 
	C304.850739,446.198853 303.024384,449.246124 298.213715,448.490540 
	C297.270721,448.342468 296.249786,448.745178 295.259491,448.834564 
	C286.655640,449.611145 284.090546,447.334747 284.012756,437.968567 
	C284.010651,428.259064 284.115784,419.449677 283.887756,410.648865 
	C283.850555,409.212158 282.342346,407.813538 281.514038,406.397339 
	C280.416443,407.686584 278.835693,408.816589 278.344849,410.305817 
	C277.745483,412.124207 277.997040,414.244080 277.992462,416.233826 
	C277.974976,423.824738 278.002472,431.415710 278.013153,439.006683 
	C277.697449,442.452209 279.094055,446.539001 273.915985,447.919159 
	C265.226105,450.235321 260.807617,449.218872 257.295929,443.047913 
	C257.284485,440.601959 257.111206,438.789368 257.164337,436.983459 
	C257.411346,428.591431 257.734680,420.201660 257.992401,411.809906 
	C258.027771,410.656952 258.200348,409.294312 257.679657,408.392273 
	C257.027496,407.262573 255.724487,406.508575 254.702393,405.592438 
	C253.902435,406.709595 252.495453,407.787323 252.419907,408.951508 
	C252.218796,412.051117 252.760773,415.191162 252.702499,418.309418 
	C252.548630,426.541870 252.233322,434.771301 251.982300,443.001953 
	C250.561310,447.297577 247.530060,448.815826 243.170151,448.255066 
	C240.023102,447.850311 236.853928,447.617432 233.294479,446.718872 
	C232.595856,443.667847 232.055771,441.207550 232.039307,438.743713 
	C231.952545,425.765961 232.036911,412.787079 231.955353,399.809265 
	C231.943161,397.870697 231.367447,395.935699 231.052444,393.999054 
M296.452759,392.012299 
	C290.135895,387.275299 283.469421,386.901581 277.106537,391.398224 
	C274.535492,393.215210 272.712555,393.588287 270.152802,391.423920 
	C265.634888,387.603882 260.324829,387.419250 255.111038,389.672455 
	C252.209473,390.926422 250.052124,390.938232 246.852219,389.903015 
	C240.328552,387.792633 234.343323,388.438324 234.350891,393.891968 
	C234.372360,409.375397 234.310638,424.858978 234.349136,440.342346 
	C234.356567,443.326904 236.016251,444.926147 239.065536,444.962585 
	C240.230865,444.976501 241.395950,445.029114 242.561172,445.029846 
	C248.904892,445.033875 249.620667,444.338715 249.688034,437.804535 
	C249.737823,432.976257 249.666748,428.146881 249.689072,423.318146 
	C249.714462,417.824005 249.356140,412.274384 250.060074,406.865448 
	C250.315353,404.903839 252.915298,402.362091 254.905182,401.841125 
	C256.112610,401.524994 258.560333,404.336823 259.764771,406.189453 
	C260.555573,407.405914 260.213745,409.418030 260.220917,411.074493 
	C260.256256,419.233429 260.223572,427.392670 260.243896,435.551727 
	C260.266449,444.611267 261.363220,445.515198 270.400726,445.091644 
	C274.226959,444.912323 275.796814,443.149261 275.769104,439.496063 
	C275.723633,433.501984 275.721039,427.507446 275.734131,421.513153 
	C275.744293,416.851593 275.721924,412.187408 275.873749,407.529602 
	C275.977417,404.348633 277.448792,401.997803 280.903137,401.799072 
	C284.598114,401.586517 285.731873,404.274567 286.129913,407.258057 
	C286.436493,409.556091 286.388855,411.908356 286.403381,414.237091 
	C286.456329,422.728271 286.298920,431.225037 286.562744,439.709015 
	C286.715088,444.607056 288.203491,445.157318 295.626007,445.118561 
	C299.686676,445.097351 301.880554,443.824493 301.815857,439.390778 
	C301.655487,428.403625 302.132996,417.384827 301.427216,406.438477 
	C301.123535,401.728729 298.524048,397.166992 296.452759,392.012299 
z"/>
<path fill="#F2B263" opacity="1.000000" stroke="none" 
	d="
M406.530884,387.877045 
	C412.835571,388.979736 413.818848,390.091766 412.347290,395.353760 
	C406.702271,415.538971 401.055878,435.726440 395.090088,455.818085 
	C392.618622,464.141449 385.995575,468.446899 378.364288,468.008820 
	C374.648865,467.795532 372.992889,465.919128 372.613159,462.445160 
	C372.222137,458.868286 371.929443,455.339783 375.951813,453.434723 
	C381.555023,450.780914 383.192871,448.183197 381.694885,442.610718 
	C377.764923,427.990845 373.596039,413.434937 369.453308,398.873230 
	C369.175934,397.898376 368.321411,397.087738 368.248077,396.976746 
	C364.998993,398.910461 361.854156,400.210876 359.518372,402.381775 
	C358.066223,403.731415 357.220917,406.383301 357.167419,408.477875 
	C356.916901,418.295227 357.053101,428.122040 357.016235,437.945343 
	C356.990234,444.874359 355.876678,445.930298 348.783386,445.937897 
	C341.381592,445.945831 340.128693,444.825073 340.092957,437.772064 
	C340.042358,427.782349 340.073029,417.792145 340.100586,407.802216 
	C340.108765,404.839478 339.670013,402.532684 336.466705,400.906708 
	C332.348022,398.816193 332.185028,391.390015 336.254120,389.144867 
	C339.447174,387.383148 339.977722,385.002319 340.431213,381.912903 
	C342.049896,370.885986 348.538330,364.677094 358.793152,364.347290 
	C362.321625,364.233826 366.007080,364.541443 366.928284,369.131592 
	C368.075989,374.850525 366.671692,377.133270 361.977386,379.353119 
	C360.239563,380.174866 358.467834,382.413483 358.170685,384.242920 
	C357.988342,385.365662 360.460480,387.078064 361.947327,388.267212 
	C363.337189,389.378815 364.999817,390.149414 366.410889,389.629303 
	C371.172058,389.191132 375.951385,388.337463 380.684357,388.544220 
	C382.300537,388.614838 384.509125,391.080688 385.204041,392.921387 
	C386.601624,396.623230 387.080017,400.664276 388.071533,404.531006 
	C388.499878,406.201569 389.260376,407.786957 389.869965,409.411011 
	C390.377930,409.412170 390.885925,409.413330 391.393890,409.414490 
	C392.663849,404.372437 394.053955,399.356689 395.165192,394.279877 
	C396.030701,390.325745 398.083405,388.035522 402.677063,387.966553 
	C404.094299,387.898560 405.120941,387.906616 406.530884,387.877045 
M370.915222,391.886963 
	C371.000092,393.653625 370.761017,395.509857 371.220825,397.172852 
	C375.077698,411.121918 379.075562,425.031921 383.004730,438.961060 
	C385.535492,447.932892 384.300934,450.579803 376.950684,456.078583 
	C375.378082,457.255066 374.856873,460.775696 375.117432,463.072815 
	C375.250214,464.243469 378.144104,465.839386 379.875000,465.953552 
	C385.335388,466.313660 390.624969,462.016602 392.998352,455.440552 
	C394.689392,450.755096 395.892365,445.891693 397.269806,441.095245 
	C401.494629,426.383698 405.758636,411.682739 409.828827,396.928406 
	C410.296112,395.234528 410.364136,392.495819 409.364685,391.505035 
	C406.198700,388.366302 398.044342,391.276031 396.961853,395.678802 
	C395.610962,401.173279 394.489563,406.726044 393.046631,412.194916 
	C392.563660,414.025391 391.397644,415.675690 390.166382,418.174438 
	C389.162201,416.445862 388.683075,415.925568 388.538818,415.324860 
	C387.335358,410.313263 386.006165,405.321381 385.073547,400.257507 
	C383.326996,390.773590 381.240173,389.310791 370.915222,391.886963 
M363.743408,396.138611 
	C362.696259,394.351410 362.022034,391.540710 360.522766,390.994446 
	C357.587036,389.924805 354.613831,388.895660 355.411896,385.528870 
	C356.104431,382.607361 357.846680,378.695557 360.190948,377.678619 
	C364.289886,375.900513 365.855621,373.702118 364.713287,369.769409 
	C363.456116,365.441467 359.753967,365.962006 356.438812,366.537323 
	C348.560944,367.904510 343.516724,373.627533 342.651459,382.038696 
	C342.258423,385.859497 342.241730,389.485779 337.606567,391.366425 
	C334.716736,392.538940 335.047882,397.712036 338.140411,399.154480 
	C341.791931,400.857697 342.138428,403.565033 342.118439,406.880920 
	C342.062286,416.196167 342.094818,425.511963 342.095337,434.827545 
	C342.095795,442.823578 342.979706,443.979401 349.030121,443.915039 
	C354.448883,443.857391 355.121735,442.856720 355.110168,435.103821 
	C355.097015,426.287445 355.216736,417.469513 355.084991,408.655182 
	C355.015839,404.026886 355.141968,399.881104 361.190002,399.208160 
	C362.051849,399.112274 362.767395,397.701294 363.743408,396.138611 
z"/>
<path fill="#ED9634" opacity="1.000000" stroke="none" 
	d="
M145.870728,428.075439 
	C149.523529,429.893585 153.369476,431.681946 156.663345,427.820282 
	C159.576569,424.404877 158.622757,422.059967 154.315765,420.778351 
	C148.289520,418.985199 146.022339,415.663544 147.163239,409.681610 
	C147.814331,406.267822 149.471176,403.261444 153.510925,403.158020 
	C159.801193,402.996948 166.100098,403.047028 172.391357,403.186981 
	C173.351395,403.208405 174.290009,404.192810 174.893555,405.089691 
	C168.224091,405.386169 161.899231,405.349823 155.575272,405.253204 
	C152.157684,405.201050 150.158890,406.590851 150.207932,410.222107 
	C150.253265,413.581085 149.893524,417.530579 154.743027,417.542145 
	C161.137741,417.557343 160.181595,421.866119 160.251678,425.834778 
	C160.331512,430.354919 158.059250,432.566254 153.693726,432.960541 
	C146.444366,433.615295 140.943436,429.690399 140.414261,421.919891 
	C139.761047,412.328278 139.912170,402.630402 140.485336,393.024384 
	C140.884369,386.336700 144.734863,382.925629 150.383423,382.447144 
	C155.360825,382.025513 157.943924,384.156219 160.487854,390.781830 
	C161.902878,394.467194 172.188080,396.368225 174.720062,393.333405 
	C175.293411,392.646179 175.712814,391.431366 175.546585,390.588959 
	C174.135178,383.436707 172.106766,376.470795 165.043289,372.757660 
	C149.888657,364.791107 128.197708,369.586853 125.315933,390.473175 
	C123.766754,401.701141 124.206230,413.394318 125.270782,424.734680 
	C126.206757,434.705322 132.425797,441.993835 142.406189,444.728516 
	C152.256332,447.427582 162.024155,446.420563 170.731857,440.794434 
	C173.093018,439.268890 175.728485,436.083618 175.848602,433.546967 
	C176.288055,424.265808 175.719452,414.936920 175.530518,405.626007 
	C176.362930,407.317627 177.601105,408.934998 177.927567,410.719208 
	C178.359772,413.081299 178.078842,415.573883 178.077042,418.942505 
	C177.993973,425.536346 177.938263,431.198120 177.882553,436.859894 
	C166.408768,451.856445 141.825424,453.721466 129.015503,440.072113 
	C125.882729,436.734039 123.347778,431.812317 122.737289,427.319794 
	C120.841507,413.369324 119.338486,399.285950 123.434326,385.336609 
	C127.698112,370.815277 145.217194,363.303467 159.813889,367.548126 
	C169.031570,370.228607 173.953400,376.199799 177.117065,384.529358 
	C180.120148,392.436127 177.170227,396.834167 168.908997,396.979431 
	C162.839264,397.086121 157.711136,396.511932 156.287567,388.923462 
	C155.657440,385.564453 150.685684,384.731476 147.503708,387.095795 
	C144.231445,389.527130 141.750916,392.389313 141.931503,397.042908 
	C142.215271,404.355194 142.025299,411.685883 142.084015,419.759155 
	C142.390793,421.013336 142.649460,421.517151 142.908142,422.020966 
	C142.929901,422.454803 142.951660,422.888672 143.048157,423.969971 
	C144.038834,425.770081 144.954788,426.922760 145.870728,428.075439 
z"/>
<path fill="#ED8F28" opacity="1.000000" stroke="none" 
	d="
M159.052399,323.993317 
	C158.830200,323.993866 158.608002,323.994415 158.050766,324.006622 
	C157.157181,322.218964 156.111679,320.420074 156.110001,318.620209 
	C156.032181,234.689728 156.022903,150.759109 156.166809,66.828812 
	C156.170700,64.557495 157.942032,62.289207 159.362717,60.236214 
	C159.907837,60.640598 159.979385,60.828274 159.895538,61.291428 
	C159.817459,63.045574 159.894730,64.524246 159.930450,66.418480 
	C159.817596,69.497543 159.684662,72.161034 159.683975,74.824547 
	C159.663437,155.268494 159.653915,235.712433 159.659180,316.156372 
	C159.659302,317.982513 159.850082,319.808685 159.714920,321.989136 
	C159.336090,322.893402 159.194244,323.443359 159.052399,323.993317 
z"/>
<path fill="#EE9D41" opacity="1.000000" stroke="none" 
	d="
M246.945404,176.918182 
	C247.377838,175.509659 247.503326,173.895309 248.289032,172.723679 
	C259.000824,156.750443 269.845001,140.865952 280.550079,124.888283 
	C282.696777,121.684311 285.380096,120.102875 289.240997,120.110260 
	C313.686554,120.157021 338.132294,120.094589 362.577698,120.163765 
	C368.850983,120.181519 370.927887,123.300041 367.757721,128.799240 
	C364.968719,133.637268 361.163666,137.908936 357.653900,142.308334 
	C348.574615,153.688980 339.410675,165.002075 329.824097,176.801636 
	C328.565582,178.505646 327.763458,179.750168 326.961365,180.994690 
	C325.334900,183.062744 323.708435,185.130783 321.675659,187.629120 
	C320.501251,189.038361 319.733185,190.017319 318.965088,190.996277 
	C318.429077,191.523575 317.893036,192.050903 316.924622,192.843872 
	C316.131989,193.207245 315.771698,193.304962 315.278442,193.276825 
	C315.145447,193.150970 314.879272,192.899475 314.976898,192.571854 
	C324.230408,180.404755 333.430573,168.599182 342.528564,156.715393 
	C350.202148,146.692123 357.757141,136.578125 365.627502,126.332260 
	C365.555756,125.226418 365.221161,124.292610 364.434509,123.259987 
	C341.252625,123.091034 318.522858,123.009575 295.792999,122.955795 
	C285.352997,122.931099 282.322601,125.146553 278.302094,135.652527 
	C278.170105,135.804382 278.069489,136.193939 277.761627,136.301819 
	C275.819519,139.102432 274.185272,141.795181 272.510773,144.494507 
	C272.470490,144.501068 272.467773,144.582657 272.139771,144.651245 
	C270.717896,146.633926 269.624023,148.548019 268.464996,150.487656 
	C268.399841,150.513199 268.406830,150.652985 268.122070,150.772766 
	C267.372040,151.774246 266.906708,152.655945 266.315277,153.680176 
	C266.189178,153.822708 266.110168,154.195007 265.794556,154.294617 
	C264.162598,156.065430 262.782257,157.690582 261.541229,159.415985 
	C256.652405,166.212906 251.807388,173.041321 246.932129,179.491364 
	C246.927231,178.389206 246.936310,177.653687 246.945404,176.918182 
z"/>
<path fill="#ED8F28" opacity="1.000000" stroke="none" 
	d="
M246.621902,177.026459 
	C246.936310,177.653687 246.927231,178.389206 246.845520,179.836411 
	C244.830460,183.970230 242.888016,187.392349 240.705627,190.923370 
	C240.144470,191.171753 239.823242,191.311234 239.228043,191.225739 
	C237.815613,190.251297 236.677155,189.501846 235.494720,188.302597 
	C235.415848,148.078094 235.403824,108.303322 235.293304,68.528816 
	C235.286133,65.951599 234.521011,63.376484 234.033218,60.571774 
	C233.305283,60.239700 232.652634,60.136242 231.531311,60.028950 
	C215.140823,60.005383 199.218781,60.027939 183.297256,59.945286 
	C176.844879,59.911793 170.393707,59.648956 163.941986,59.490479 
	C165.350052,58.679855 166.753067,57.173500 168.166962,57.163216 
	C188.624817,57.014404 209.084747,56.978630 229.542755,57.120037 
	C236.280258,57.166603 237.970566,59.176025 237.972458,65.941216 
	C237.982880,103.366295 237.974960,140.791382 237.973343,178.216461 
	C237.973251,180.463791 237.973328,182.711105 237.973328,184.958435 
	C238.432373,185.109482 238.891418,185.260544 239.350464,185.411606 
	C241.666443,182.652649 243.982422,179.893692 246.621902,177.026459 
z"/>
<path fill="#EEA249" opacity="1.000000" stroke="none" 
	d="
M186.951874,408.075958 
	C182.684189,406.252380 181.447998,402.289001 183.994415,398.109833 
	C188.570831,390.599060 195.070450,386.477356 204.989990,387.029053 
	C217.783890,386.478607 226.628082,394.013733 226.030960,407.023804 
	C225.955658,408.664856 226.132339,410.317505 226.137726,412.433380 
	C226.121445,419.612640 226.159668,426.323273 226.188599,433.352631 
	C226.183304,434.096405 226.187317,434.521454 226.190399,435.232544 
	C226.411697,436.036255 226.633911,436.553955 226.869614,437.389832 
	C226.928467,438.130127 226.973816,438.552246 226.996902,439.379150 
	C227.042694,440.859589 227.110748,441.935181 227.071625,443.328888 
	C225.608307,444.706116 224.252182,445.765259 222.896057,446.824402 
	C219.145462,446.877716 215.389175,446.819977 211.645691,447.012024 
	C206.793076,447.260986 201.827728,448.522217 197.142776,447.813934 
	C193.395081,447.247345 189.993698,444.390076 186.199921,441.953369 
	C185.331207,440.530396 184.701157,439.703491 184.071106,438.876587 
	C183.826126,438.400818 183.581131,437.925018 183.196289,436.793671 
	C183.071762,430.773132 183.087097,425.408203 183.102432,420.043243 
	C183.380295,419.604126 183.658157,419.164978 184.332489,418.352448 
	C185.201797,417.343201 185.674652,416.707336 186.147522,416.071503 
	C186.691269,415.587769 187.235016,415.104065 188.261658,414.287903 
	C190.685150,412.726013 192.625748,411.496521 194.566360,410.266998 
	C194.467697,409.761749 194.369034,409.256470 194.270370,408.751221 
	C191.830872,408.526123 189.391373,408.301056 186.951874,408.075958 
M186.626282,404.000549 
	C191.205414,407.124329 196.297897,406.402283 199.926743,403.143433 
	C201.675049,401.573364 205.566574,400.125183 206.973297,401.015198 
	C208.714020,402.116577 209.479324,405.678650 209.583313,408.221924 
	C209.722260,411.620453 206.636826,411.635040 204.109116,411.787384 
	C202.781479,411.867371 201.445816,411.851593 200.123856,411.981598 
	C193.237259,412.658936 188.048935,416.137909 185.552490,422.485901 
	C182.858734,429.335602 183.859528,435.985687 189.388565,441.323975 
	C194.622528,446.377350 200.634201,446.157928 206.987518,443.589233 
	C208.374344,443.028534 210.123672,443.150940 211.681503,443.272736 
	C214.627258,443.503082 217.546555,444.080719 220.492798,444.293457 
	C223.913834,444.540497 225.055939,442.862915 224.891586,439.406647 
	C224.434219,429.788544 224.336746,420.153809 224.028961,410.527802 
	C223.938873,407.710663 223.894409,404.847015 223.354034,402.098053 
	C221.879288,394.595917 216.272705,389.862610 208.339554,389.081390 
	C199.261887,388.187500 190.078400,392.217651 187.336029,398.473846 
	C186.694336,399.937744 186.660492,401.668121 186.626282,404.000549 
z"/>
<path fill="#FCD8A2" opacity="1.000000" stroke="none" 
	d="
M163.628448,59.568573 
	C170.393707,59.648956 176.844879,59.911793 183.297256,59.945286 
	C199.218781,60.027939 215.140823,60.005383 231.751450,60.219833 
	C232.996323,60.543163 233.552399,60.671776 234.108490,60.800388 
	C234.521011,63.376484 235.286133,65.951599 235.293304,68.528816 
	C235.403824,108.303322 235.415848,148.078094 235.387817,188.677780 
	C236.259933,191.124405 237.194962,192.746063 237.974182,194.667984 
	C236.570450,195.294449 235.322510,195.620651 234.058990,195.626404 
	C233.730942,194.527802 233.418472,193.749664 233.102310,192.600739 
	C233.062698,191.489304 233.026794,190.748657 233.037933,189.606888 
	C233.044479,188.131378 233.003998,187.057022 232.987976,185.515594 
	C232.990570,145.373611 232.968674,105.698692 232.909576,65.647583 
	C230.718781,64.177650 228.588699,62.195557 226.407715,62.137867 
	C214.471832,61.822147 202.523483,61.976471 190.579407,61.974026 
	C183.280304,61.972530 175.969208,61.745369 168.689041,62.118301 
	C166.352036,62.238022 164.096725,63.952396 161.613861,65.139999 
	C160.939804,65.562836 160.455902,65.782875 159.972015,66.002914 
	C159.894730,64.524246 159.817459,63.045574 160.189590,61.238297 
	C161.104706,60.551556 161.570389,60.193413 162.036087,59.835274 
	C162.462357,59.772408 162.888626,59.709541 163.628448,59.568573 
z"/>
<path fill="#F88307" opacity="1.000000" stroke="none" 
	d="
M226.191330,434.946533 
	C226.187317,434.521454 226.183304,434.096405 226.499619,433.146484 
	C227.186859,426.663055 227.633163,420.707153 227.836060,414.743042 
	C227.866882,413.836639 226.768387,412.891846 226.192230,411.964783 
	C226.132339,410.317505 225.955658,408.664856 226.030960,407.023804 
	C226.628082,394.013733 217.783890,386.478607 205.431946,386.997681 
	C208.078247,384.474762 216.369492,385.451843 219.815994,388.027740 
	C223.003265,390.409912 226.761780,392.027802 230.660583,393.990662 
	C231.367447,395.935699 231.943161,397.870697 231.955353,399.809265 
	C232.036911,412.787079 231.952545,425.765961 232.039307,438.743713 
	C232.055771,441.207550 232.595856,443.667847 233.002365,446.528656 
	C231.302338,447.197479 229.501129,447.601990 227.684052,447.694427 
	C226.253326,447.767242 224.803040,447.455353 223.128738,447.069366 
	C224.252182,445.765259 225.608307,444.706116 227.341064,443.190369 
	C227.484848,441.480621 227.251999,440.227478 227.019165,438.974365 
	C226.973816,438.552246 226.928467,438.130127 227.022766,437.199829 
	C226.838715,436.109955 226.515030,435.528229 226.191330,434.946533 
z"/>
<path fill="#F88307" opacity="1.000000" stroke="none" 
	d="
M252.306198,442.941711 
	C252.233322,434.771301 252.548630,426.541870 252.702499,418.309418 
	C252.760773,415.191162 252.218796,412.051117 252.419907,408.951508 
	C252.495453,407.787323 253.902435,406.709595 254.702393,405.592438 
	C255.724487,406.508575 257.027496,407.262573 257.679657,408.392273 
	C258.200348,409.294312 258.027771,410.656952 257.992401,411.809906 
	C257.734680,420.201660 257.411346,428.591431 257.164337,436.983459 
	C257.111206,438.789368 257.284485,440.601959 257.212891,442.712219 
	C255.591568,442.969147 254.110840,442.925323 252.306198,442.941711 
z"/>
<path fill="#F88307" opacity="1.000000" stroke="none" 
	d="
M278.383362,438.926453 
	C278.002472,431.415710 277.974976,423.824738 277.992462,416.233826 
	C277.997040,414.244080 277.745483,412.124207 278.344849,410.305817 
	C278.835693,408.816589 280.416443,407.686584 281.514038,406.397339 
	C282.342346,407.813538 283.850555,409.212158 283.887756,410.648865 
	C284.115784,419.449677 284.010651,428.259064 284.008148,437.534637 
	C282.251068,438.284515 280.502319,438.565369 278.383362,438.926453 
z"/>
<path fill="#EF8718" opacity="1.000000" stroke="none" 
	d="
M182.731796,420.014221 
	C183.087097,425.408203 183.071762,430.773132 183.066650,436.559570 
	C181.635056,436.963196 180.193268,436.945343 178.317017,436.893677 
	C177.938263,431.198120 177.993973,425.536346 178.086456,419.399963 
	C179.535889,419.278625 180.948517,419.631897 182.731796,420.014221 
z"/>
<path fill="#EF8718" opacity="1.000000" stroke="none" 
	d="
M309.844849,217.792511 
	C306.356476,215.241928 303.243225,212.140625 305.453979,206.442200 
	C307.223755,204.953400 308.599518,203.945160 309.975342,202.936935 
	C309.953644,203.264664 310.000641,203.615341 309.899902,203.916641 
	C308.511780,208.069092 308.468536,212.902084 309.844849,217.792511 
z"/>
<path fill="#EE9D41" opacity="1.000000" stroke="none" 
	d="
M310.053406,202.641479 
	C308.599518,203.945160 307.223755,204.953400 305.569946,206.107208 
	C305.291901,206.252777 305.021942,206.016205 304.975891,205.568756 
	C308.246277,201.047348 311.562775,196.973404 314.879272,192.899475 
	C314.879272,192.899475 315.145447,193.150970 315.185242,193.592834 
	C315.155273,194.697784 315.085541,195.360870 315.015808,196.023972 
	C314.769501,196.215591 314.542755,196.428085 313.920532,197.009003 
	C312.998901,198.235550 312.492310,199.114578 311.985718,199.993607 
	C311.367645,200.777740 310.749603,201.561890 310.053406,202.641479 
z"/>
<path fill="#EF8718" opacity="1.000000" stroke="none" 
	d="
M187.060883,408.370972 
	C189.391373,408.301056 191.830872,408.526123 194.270370,408.751221 
	C194.369034,409.256470 194.467697,409.761749 194.566360,410.266998 
	C192.625748,411.496521 190.685150,412.726013 188.416199,414.060974 
	C187.781876,412.332947 187.475891,410.499481 187.060883,408.370972 
z"/>
<path fill="#F08F23" opacity="1.000000" stroke="none" 
	d="
M373.942291,321.670959 
	C372.660065,319.947113 371.367523,317.850708 369.993530,315.418823 
	C371.252045,317.155029 372.592010,319.226685 373.942291,321.670959 
z"/>
<path fill="#EF8718" opacity="1.000000" stroke="none" 
	d="
M145.873901,427.719849 
	C144.954788,426.922760 144.038834,425.770081 143.065552,424.295288 
	C143.964493,425.103516 144.920776,426.233887 145.873901,427.719849 
z"/>
<path fill="#EF8718" opacity="1.000000" stroke="none" 
	d="
M327.301910,180.910950 
	C327.763458,179.750168 328.565582,178.505646 329.635071,177.075714 
	C329.149139,178.202621 328.395813,179.514908 327.301910,180.910950 
z"/>
<path fill="#EF8718" opacity="1.000000" stroke="none" 
	d="
M319.293060,190.919144 
	C319.733185,190.017319 320.501251,189.038361 321.574951,187.946533 
	C321.127411,188.836441 320.374207,189.839233 319.293060,190.919144 
z"/>
<path fill="#F08F23" opacity="1.000000" stroke="none" 
	d="
M276.954407,314.197418 
	C277.721466,314.755432 278.327271,315.542358 279.008484,316.624390 
	C278.320312,316.088409 277.556702,315.257385 276.954407,314.197418 
z"/>
<path fill="#EF8718" opacity="1.000000" stroke="none" 
	d="
M315.316528,195.904480 
	C315.085541,195.360870 315.155273,194.697784 315.318237,193.718674 
	C315.771698,193.304962 316.131989,193.207245 316.773743,193.084564 
	C316.575867,193.968048 316.096558,194.876526 315.316528,195.904480 
z"/>
<path fill="#EF8718" opacity="1.000000" stroke="none" 
	d="
M184.080505,439.220581 
	C184.701157,439.703491 185.331207,440.530396 186.014618,441.674072 
	C185.408630,441.182129 184.749268,440.373352 184.080505,439.220581 
z"/>
<path fill="#EF8718" opacity="1.000000" stroke="none" 
	d="
M312.287720,199.872559 
	C312.492310,199.114578 312.998901,198.235550 313.773621,197.190277 
	C313.557739,197.933197 313.073730,198.842346 312.287720,199.872559 
z"/>
<path fill="#F08F23" opacity="1.000000" stroke="none" 
	d="
M282.059204,322.306702 
	C282.662231,322.767487 283.287994,323.560364 283.982422,324.657471 
	C283.394684,324.187378 282.738312,323.413116 282.059204,322.306702 
z"/>
<path fill="#EF8718" opacity="1.000000" stroke="none" 
	d="
M143.050644,421.826904 
	C142.649460,421.517151 142.390793,421.013336 142.094467,420.223816 
	C142.435593,420.503052 142.814377,421.067963 143.050644,421.826904 
z"/>
<path fill="#EF8718" opacity="1.000000" stroke="none" 
	d="
M185.832764,416.152496 
	C185.674652,416.707336 185.201797,417.343201 184.462952,418.127136 
	C184.637299,417.594635 185.077652,416.914062 185.832764,416.152496 
z"/>
<path fill="#F08F23" opacity="1.000000" stroke="none" 
	d="
M286.083496,327.210144 
	C286.538391,327.160583 287.055695,327.350983 287.789307,327.714355 
	C287.385712,327.741577 286.765808,327.595856 286.083496,327.210144 
z"/>
<path fill="#F08F23" opacity="1.000000" stroke="none" 
	d="
M367.754578,310.848969 
	C367.239899,310.649872 366.677185,310.146027 366.009796,309.369934 
	C366.505585,309.579834 367.106049,310.062042 367.754578,310.848969 
z"/>
<path fill="#F2AE5F" opacity="1.000000" stroke="none" 
	d="
M161.833466,59.662327 
	C161.570389,60.193413 161.104706,60.551556 160.344971,60.962822 
	C159.979385,60.828274 159.907837,60.640598 159.718079,60.174896 
	C160.276871,59.761040 160.953842,59.625210 161.833466,59.662327 
z"/>
<path fill="#F08F23" opacity="1.000000" stroke="none" 
	d="
M368.830322,313.840942 
	C368.685211,313.860962 368.464081,313.633087 368.171204,313.154083 
	C368.311279,313.140045 368.529572,313.370117 368.830322,313.840942 
z"/>
<path fill="#B54100" opacity="1.000000" stroke="none" 
	d="
M1.609653,462.749084 
	C1.489079,462.171875 1.407750,461.924133 1.438436,461.873596 
	C1.661080,460.743408 1.853038,459.663696 2.069818,458.043549 
	C2.300660,460.863678 2.509742,464.224121 2.696421,467.585815 
	C2.701501,467.677307 2.404947,467.891815 2.351241,467.862366 
	C2.085639,467.716888 1.854482,467.508545 1.601871,467.087036 
	C1.638447,465.676575 1.684337,464.501404 1.609653,462.749084 
z"/>
<path fill="#B54100" opacity="1.000000" stroke="none" 
	d="
M2.327920,385.175415 
	C2.013754,383.758087 1.932005,382.016754 1.817548,379.732788 
	C2.043340,381.077240 2.301838,382.964325 2.327920,385.175415 
z"/>
<path fill="#B54100" opacity="1.000000" stroke="none" 
	d="
M2.329130,177.225876 
	C2.070440,176.170364 2.032652,174.838608 2.019783,173.009247 
	C2.213145,173.990952 2.381590,175.470306 2.329130,177.225876 
z"/>
<path fill="#FCD8A2" opacity="1.000000" stroke="none" 
	d="
M312.145386,413.000122 
	C312.164185,406.670441 312.281677,400.838837 312.172546,395.011505 
	C312.069641,389.518768 315.462219,388.923462 319.768799,389.021179 
	C326.548798,389.174957 327.690491,389.772247 327.733246,395.059113 
	C327.853149,409.882324 327.741364,424.707306 327.799286,439.531281 
	C327.815033,443.567261 325.958252,445.062592 321.988525,445.148956 
	C312.716217,445.350525 312.126617,444.906952 312.129333,435.486816 
	C312.131439,428.157898 312.139648,420.828979 312.145386,413.000122 
M314.889038,420.499725 
	C314.894073,425.990326 314.944794,431.481384 314.887299,436.971313 
	C314.851807,440.360535 316.052368,442.269775 319.795868,442.309753 
	C323.655792,442.350922 325.211182,440.651398 325.121185,436.883575 
	C324.807739,423.757477 324.561615,410.629608 324.344604,397.501495 
	C324.292450,394.346375 323.741882,391.787323 319.759064,391.919495 
	C315.710876,392.053894 314.920807,394.674561 314.929596,398.036591 
	C314.948334,405.190918 314.905182,412.345398 314.889038,420.499725 
z"/>
<path fill="#FCDCA9" opacity="1.000000" stroke="none" 
	d="
M312.191467,373.515381 
	C314.716492,368.536804 318.285583,366.898621 322.858398,368.310455 
	C326.858246,369.545349 328.329651,372.466431 327.897034,376.396484 
	C327.432465,380.616394 323.888580,383.316711 319.410217,383.090637 
	C314.333405,382.834412 312.181366,380.130920 312.191467,373.515381 
M324.076508,377.488586 
	C325.898041,374.272247 324.899658,371.713593 321.502136,371.145538 
	C319.664764,370.838379 316.801117,371.935760 315.720337,373.384308 
	C314.904358,374.477936 315.863800,378.657959 316.587982,378.809357 
	C318.776123,379.266724 321.234802,378.430145 324.076508,377.488586 
z"/>
<path fill="#FFFFFE" opacity="1.000000" stroke="none" 
	d="
M159.930450,66.418480 
	C160.455902,65.782875 160.939804,65.562836 162.046600,65.082397 
	C165.299713,64.543800 167.928986,64.035538 170.560303,64.024651 
	C187.832489,63.953247 205.106415,63.878014 222.376495,64.082275 
	C225.907089,64.124039 229.423706,65.345886 232.946777,66.023766 
	C232.968674,105.698692 232.990570,145.373611 232.699799,185.642761 
	C232.588394,187.493988 232.789642,188.751007 232.990875,190.008026 
	C233.026794,190.748657 233.062698,191.489304 232.911469,192.828613 
	C233.174438,194.267151 233.624512,195.106995 234.074585,195.946854 
	C235.322510,195.620651 236.570450,195.294449 238.202606,194.412933 
	C238.891907,193.055328 239.196976,192.253036 239.502029,191.450714 
	C239.823242,191.311234 240.144470,191.171753 240.738922,191.213226 
	C242.492172,190.471924 244.429993,189.880829 245.376389,188.572556 
	C250.707199,181.203400 256.025574,173.804337 260.874329,166.116562 
	C263.164093,162.486115 264.397888,158.189682 266.110168,154.195007 
	C266.110168,154.195007 266.189178,153.822708 266.685547,153.696030 
	C267.590240,152.597229 267.998535,151.625107 268.406860,150.652985 
	C268.406830,150.652985 268.399841,150.513199 268.846252,150.558075 
	C272.725128,149.848312 273.109711,147.486176 272.467773,144.582657 
	C272.467773,144.582657 272.470490,144.501068 272.874573,144.554840 
	C276.740021,142.865219 278.795776,140.321548 278.069489,136.193939 
	C278.069489,136.193939 278.170105,135.804382 278.673004,135.717468 
	C280.513824,134.492188 282.246857,133.595810 283.118744,132.172058 
	C286.285889,127.000237 290.745941,125.681992 296.632996,125.775848 
	C315.943695,126.083740 335.262604,125.858551 354.578217,125.903015 
	C356.598450,125.907661 358.617706,126.342796 362.073883,126.745636 
	C358.716431,131.229355 356.253265,134.684937 353.619995,138.005615 
	C343.944366,150.207077 334.150665,162.315292 324.521210,174.552841 
	C317.023376,184.081390 309.834442,193.854980 302.248779,203.311554 
	C298.519775,207.960266 297.994141,210.611267 301.371246,215.791046 
	C303.823944,219.552994 306.554718,223.138626 308.912170,226.956833 
	C319.286255,243.758911 329.342865,260.764130 340.088837,277.323029 
	C342.095245,280.414764 342.449127,285.860229 348.000854,286.015167 
	C348.000854,286.015167 348.237183,286.307800 348.110107,286.781494 
	C347.297699,290.718872 348.685699,292.606384 352.236206,292.849945 
	C352.719482,293.636536 353.202759,294.423126 353.507812,295.703308 
	C353.277618,297.105072 352.846130,298.245148 353.236084,298.883118 
	C355.540924,302.653748 357.972076,306.353790 360.538666,309.950562 
	C360.916901,310.480560 362.241486,310.335175 363.128235,310.502289 
	C364.493347,312.635620 365.858429,314.768921 367.211334,317.620026 
	C367.158234,318.886322 367.117310,319.434814 366.747528,320.173279 
	C363.266632,321.547150 360.114594,322.731110 356.496704,323.928345 
	C349.702606,323.921844 343.374359,323.902008 336.845581,323.559113 
	C334.780243,322.830261 332.917633,322.084930 331.050232,322.072754 
	C316.687469,321.979248 302.323792,322.028046 287.693695,321.829407 
	C278.341980,306.465546 269.220215,291.326782 260.190277,276.133453 
	C256.645386,270.168976 253.356934,264.052521 249.851364,258.063995 
	C248.136566,255.134583 245.356995,252.420486 242.252762,254.922485 
	C238.894104,257.629517 236.568069,261.658722 234.000992,265.260437 
	C233.637711,265.770111 234.458832,267.123901 234.731766,268.087006 
	C234.677780,283.967285 234.635818,299.847656 234.555603,315.727814 
	C234.544769,317.873169 234.341690,320.017578 233.903931,322.490051 
	C233.404648,322.807648 233.229019,322.797607 232.855682,322.707153 
	C232.109451,322.760254 231.560928,322.893677 230.659332,322.810883 
	C229.338715,322.408417 228.371490,322.061432 227.403595,322.059601 
	C207.350388,322.021637 187.297028,322.001770 167.243958,322.061127 
	C165.823792,322.065338 164.405518,322.709045 162.681702,323.011597 
	C161.974503,322.890686 161.571945,322.813538 161.069733,322.544312 
	C160.630707,322.113098 160.291321,321.873962 159.951920,321.634827 
	C159.850082,319.808685 159.659302,317.982513 159.659180,316.156372 
	C159.653915,235.712433 159.663437,155.268494 159.683975,74.824547 
	C159.684662,72.161034 159.817596,69.497543 159.930450,66.418480 
z"/>
<path fill="#FEE8C0" opacity="1.000000" stroke="none" 
	d="
M348.010315,285.656799 
	C342.449127,285.860229 342.095245,280.414764 340.088837,277.323029 
	C329.342865,260.764130 319.286255,243.758911 308.912170,226.956833 
	C306.554718,223.138626 303.823944,219.552994 301.371246,215.791046 
	C297.994141,210.611267 298.519775,207.960266 302.248779,203.311554 
	C309.834442,193.854980 317.023376,184.081390 324.521210,174.552841 
	C334.150665,162.315292 343.944366,150.207077 353.619995,138.005615 
	C356.253265,134.684937 358.716431,131.229355 362.073883,126.745636 
	C358.617706,126.342796 356.598450,125.907661 354.578217,125.903015 
	C335.262604,125.858551 315.943695,126.083740 296.632996,125.775848 
	C290.745941,125.681992 286.285889,127.000237 283.118744,132.172058 
	C282.246857,133.595810 280.513824,134.492188 278.804993,135.565613 
	C282.322601,125.146553 285.352997,122.931099 295.792999,122.955795 
	C318.522858,123.009575 341.252625,123.091034 364.465027,123.652618 
	C365.086639,124.930794 365.225616,125.717545 365.364624,126.504288 
	C357.757141,136.578125 350.202148,146.692123 342.528564,156.715393 
	C333.430573,168.599182 324.230408,180.404755 314.976898,192.571854 
	C311.562775,196.973404 308.246277,201.047348 304.839478,205.452118 
	C300.917969,208.319351 302.058380,211.099792 304.044769,214.270554 
	C318.568939,237.454727 333.002350,260.695740 347.453461,283.925690 
	C347.711365,284.340271 347.833984,284.838989 348.010315,285.656799 
z"/>
<path fill="#FEE3B7" opacity="1.000000" stroke="none" 
	d="
M367.076385,319.983337 
	C367.117310,319.434814 367.158234,318.886322 367.326141,317.942749 
	C368.174072,318.198364 369.158722,318.718262 369.559723,319.527435 
	C370.340088,321.102081 370.793213,322.838898 371.381866,324.508545 
	C369.719055,325.014404 368.060669,325.941345 366.392700,325.958984 
	C353.925751,326.090851 341.456879,326.047821 328.988617,326.049683 
	C317.517731,326.051392 306.036926,325.757538 294.580322,326.159546 
	C289.149902,326.350067 285.964539,324.276703 283.363312,319.798767 
	C272.095245,300.400909 260.650208,281.105835 249.268402,261.774078 
	C248.762878,260.915466 248.237976,260.068237 247.736694,259.207214 
	C245.942749,256.125824 243.981583,255.612396 241.716888,258.765594 
	C239.588364,261.729218 237.426498,264.668945 235.005539,267.853088 
	C234.458832,267.123901 233.637711,265.770111 234.000992,265.260437 
	C236.568069,261.658722 238.894104,257.629517 242.252762,254.922485 
	C245.356995,252.420486 248.136566,255.134583 249.851364,258.063995 
	C253.356934,264.052521 256.645386,270.168976 260.190277,276.133453 
	C269.220215,291.326782 278.341980,306.465546 287.932922,322.139496 
	C289.980469,323.114349 291.520752,323.970581 293.063995,323.976013 
	C307.724396,324.027191 322.385315,323.933960 337.046082,323.882233 
	C343.374359,323.902008 349.702606,323.921844 356.957306,323.968872 
	C360.532410,323.996063 363.195374,324.169006 365.826202,323.952209 
	C369.104736,323.682007 369.644104,322.247681 367.076385,319.983337 
z"/>
<path fill="#FEF9E2" opacity="1.000000" stroke="none" 
	d="
M162.986359,323.055359 
	C164.405518,322.709045 165.823792,322.065338 167.243958,322.061127 
	C187.297028,322.001770 207.350388,322.021637 227.403595,322.059601 
	C228.371490,322.061432 229.338715,322.408417 230.677399,323.195282 
	C231.095795,324.308777 231.143021,324.821686 231.190247,325.334564 
	C208.708649,325.362793 186.227036,325.391022 163.336395,324.987854 
	C162.947021,324.056061 162.966705,323.555725 162.986359,323.055359 
z"/>
<path fill="#FEE8C0" opacity="1.000000" stroke="none" 
	d="
M363.104187,310.174408 
	C362.241486,310.335175 360.916901,310.480560 360.538666,309.950562 
	C357.972076,306.353790 355.540924,302.653748 353.236084,298.883118 
	C352.846130,298.245148 353.277618,297.105072 353.625702,296.030060 
	C356.974609,300.524261 360.027374,305.185394 363.104187,310.174408 
z"/>
<path fill="#FEE8C0" opacity="1.000000" stroke="none" 
	d="
M352.219604,292.501434 
	C348.685699,292.606384 347.297699,290.718872 348.172302,286.958984 
	C349.642059,288.492859 350.922546,290.322876 352.219604,292.501434 
z"/>
<path fill="#FCD8A2" opacity="1.000000" stroke="none" 
	d="
M159.714920,321.989136 
	C160.291321,321.873962 160.630707,322.113098 161.024734,322.935181 
	C161.044998,324.038208 161.010620,324.558289 160.976227,325.078400 
	C160.500229,324.798645 160.024231,324.518890 159.300323,324.116211 
	C159.194244,323.443359 159.336090,322.893402 159.714920,321.989136 
z"/>
<path fill="#FEE3B7" opacity="1.000000" stroke="none" 
	d="
M231.507172,325.398865 
	C231.143021,324.821686 231.095795,324.308777 231.030487,323.411499 
	C231.560928,322.893677 232.109451,322.760254 232.852905,323.110168 
	C233.059174,324.126770 233.070496,324.659943 233.081802,325.193146 
	C232.662567,325.283173 232.243317,325.373169 231.507172,325.398865 
z"/>
<path fill="#FEE3B7" opacity="1.000000" stroke="none" 
	d="
M161.271606,325.200470 
	C161.010620,324.558289 161.044998,324.038208 161.124390,323.127258 
	C161.571945,322.813538 161.974503,322.890686 162.681702,323.011597 
	C162.966705,323.555725 162.947021,324.056061 162.877426,324.931763 
	C162.407333,325.312225 161.987167,325.317383 161.271606,325.200470 
z"/>
<path fill="#FCD8A2" opacity="1.000000" stroke="none" 
	d="
M233.340027,325.121460 
	C233.070496,324.659943 233.059174,324.126770 233.050629,323.190552 
	C233.229019,322.797607 233.404648,322.807648 233.832169,322.896393 
	C233.922134,323.666656 233.760193,324.358215 233.340027,325.121460 
z"/>
<path fill="#FCDCA9" opacity="1.000000" stroke="none" 
	d="
M296.710144,392.275146 
	C298.524048,397.166992 301.123535,401.728729 301.427216,406.438477 
	C302.132996,417.384827 301.655487,428.403625 301.815857,439.390778 
	C301.880554,443.824493 299.686676,445.097351 295.626007,445.118561 
	C288.203491,445.157318 286.715088,444.607056 286.562744,439.709015 
	C286.298920,431.225037 286.456329,422.728271 286.403381,414.237091 
	C286.388855,411.908356 286.436493,409.556091 286.129913,407.258057 
	C285.731873,404.274567 284.598114,401.586517 280.903137,401.799072 
	C277.448792,401.997803 275.977417,404.348633 275.873749,407.529602 
	C275.721924,412.187408 275.744293,416.851593 275.734131,421.513153 
	C275.721039,427.507446 275.723633,433.501984 275.769104,439.496063 
	C275.796814,443.149261 274.226959,444.912323 270.400726,445.091644 
	C261.363220,445.515198 260.266449,444.611267 260.243896,435.551727 
	C260.223572,427.392670 260.256256,419.233429 260.220917,411.074493 
	C260.213745,409.418030 260.555573,407.405914 259.764771,406.189453 
	C258.560333,404.336823 256.112610,401.524994 254.905182,401.841125 
	C252.915298,402.362091 250.315353,404.903839 250.060074,406.865448 
	C249.356140,412.274384 249.714462,417.824005 249.689072,423.318146 
	C249.666748,428.146881 249.737823,432.976257 249.688034,437.804535 
	C249.620667,444.338715 248.904892,445.033875 242.561172,445.029846 
	C241.395950,445.029114 240.230865,444.976501 239.065536,444.962585 
	C236.016251,444.926147 234.356567,443.326904 234.349136,440.342346 
	C234.310638,424.858978 234.372360,409.375397 234.350891,393.891968 
	C234.343323,388.438324 240.328552,387.792633 246.852219,389.903015 
	C250.052124,390.938232 252.209473,390.926422 255.111038,389.672455 
	C260.324829,387.419250 265.634888,387.603882 270.152802,391.423920 
	C272.712555,393.588287 274.535492,393.215210 277.106537,391.398224 
	C283.469421,386.901581 290.135895,387.275299 296.710144,392.275146 
M243.900284,442.177155 
	C244.962814,440.220612 246.876328,438.292938 246.943863,436.302643 
	C247.276001,426.515503 247.163834,416.711548 247.113358,406.914001 
	C247.088913,402.171906 249.838699,399.981750 254.021606,399.244476 
	C259.367798,398.302124 262.694580,401.609741 262.854523,408.383667 
	C263.062225,417.180298 262.849670,425.986237 262.958008,434.786407 
	C262.983856,436.888519 263.563751,438.983765 264.347290,441.671631 
	C267.393585,443.554993 270.330444,444.057983 273.043671,440.052673 
	C273.072205,428.886627 272.796051,417.705017 273.365021,406.566589 
	C273.491333,404.093964 276.113068,400.865173 278.456024,399.613373 
	C281.376770,398.052887 285.326233,398.548370 287.018646,402.286530 
	C288.345276,405.216644 289.447083,408.497101 289.585114,411.668182 
	C289.939850,419.819122 289.729034,427.995941 289.690094,436.162140 
	C289.675018,439.319550 290.339661,441.910950 294.153259,442.048920 
	C297.983856,442.187561 298.314270,439.487000 298.312744,436.632935 
	C298.307190,426.167480 298.294739,415.701965 298.262421,405.236542 
	C298.247498,400.399963 297.601562,395.371521 292.824463,393.188416 
	C287.688934,390.841522 282.178436,390.712433 277.351807,394.842682 
	C274.827850,397.002441 272.295746,397.525330 269.400024,394.864594 
	C265.160767,390.969391 260.011871,391.404510 254.809891,392.636353 
	C252.276291,393.236267 249.666458,393.514160 246.675827,393.323944 
	C244.787064,392.868561 242.898285,392.413147 240.213882,391.998505 
	C239.116287,393.723480 237.103058,395.429443 237.066879,397.176422 
	C236.793228,410.382782 236.819901,423.598480 237.020645,436.807190 
	C237.043701,438.324310 238.714111,439.816376 240.020782,441.753876 
	C241.050995,441.935394 242.081207,442.116913 243.900284,442.177155 
z"/>
<path fill="#FEF7E7" opacity="1.000000" stroke="none" 
	d="
M371.219055,391.614441 
	C381.240173,389.310791 383.326996,390.773590 385.073547,400.257507 
	C386.006165,405.321381 387.335358,410.313263 388.538818,415.324860 
	C388.683075,415.925568 389.162201,416.445862 390.166382,418.174438 
	C391.397644,415.675690 392.563660,414.025391 393.046631,412.194916 
	C394.489563,406.726044 395.610962,401.173279 396.961853,395.678802 
	C398.044342,391.276031 406.198700,388.366302 409.364685,391.505035 
	C410.364136,392.495819 410.296112,395.234528 409.828827,396.928406 
	C405.758636,411.682739 401.494629,426.383698 397.269806,441.095245 
	C395.892365,445.891693 394.689392,450.755096 392.998352,455.440552 
	C390.624969,462.016602 385.335388,466.313660 379.875000,465.953552 
	C378.144104,465.839386 375.250214,464.243469 375.117432,463.072815 
	C374.856873,460.775696 375.378082,457.255066 376.950684,456.078583 
	C384.300934,450.579803 385.535492,447.932892 383.004730,438.961060 
	C379.075562,425.031921 375.077698,411.121918 371.220825,397.172852 
	C370.761017,395.509857 371.000092,393.653625 371.219055,391.614441 
z"/>
<path fill="#FEF8E8" opacity="1.000000" stroke="none" 
	d="
M363.647034,396.518799 
	C362.767395,397.701294 362.051849,399.112274 361.190002,399.208160 
	C355.141968,399.881104 355.015839,404.026886 355.084991,408.655182 
	C355.216736,417.469513 355.097015,426.287445 355.110168,435.103821 
	C355.121735,442.856720 354.448883,443.857391 349.030121,443.915039 
	C342.979706,443.979401 342.095795,442.823578 342.095337,434.827545 
	C342.094818,425.511963 342.062286,416.196167 342.118439,406.880920 
	C342.138428,403.565033 341.791931,400.857697 338.140411,399.154480 
	C335.047882,397.712036 334.716736,392.538940 337.606567,391.366425 
	C342.241730,389.485779 342.258423,385.859497 342.651459,382.038696 
	C343.516724,373.627533 348.560944,367.904510 356.438812,366.537323 
	C359.753967,365.962006 363.456116,365.441467 364.713287,369.769409 
	C365.855621,373.702118 364.289886,375.900513 360.190948,377.678619 
	C357.846680,378.695557 356.104431,382.607361 355.411896,385.528870 
	C354.613831,388.895660 357.587036,389.924805 360.522766,390.994446 
	C362.022034,391.540710 362.696259,394.351410 363.647034,396.518799 
z"/>
<path fill="#FCDBA8" opacity="1.000000" stroke="none" 
	d="
M175.495605,405.583801 
	C175.719452,414.936920 176.288055,424.265808 175.848602,433.546967 
	C175.728485,436.083618 173.093018,439.268890 170.731857,440.794434 
	C162.024155,446.420563 152.256332,447.427582 142.406189,444.728516 
	C132.425797,441.993835 126.206757,434.705322 125.270782,424.734680 
	C124.206230,413.394318 123.766754,401.701141 125.315933,390.473175 
	C128.197708,369.586853 149.888657,364.791107 165.043289,372.757660 
	C172.106766,376.470795 174.135178,383.436707 175.546585,390.588959 
	C175.712814,391.431366 175.293411,392.646179 174.720062,393.333405 
	C172.188080,396.368225 161.902878,394.467194 160.487854,390.781830 
	C157.943924,384.156219 155.360825,382.025513 150.383423,382.447144 
	C144.734863,382.925629 140.884369,386.336700 140.485336,393.024384 
	C139.912170,402.630402 139.761047,412.328278 140.414261,421.919891 
	C140.943436,429.690399 146.444366,433.615295 153.693726,432.960541 
	C158.059250,432.566254 160.331512,430.354919 160.251678,425.834778 
	C160.181595,421.866119 161.137741,417.557343 154.743027,417.542145 
	C149.893524,417.530579 150.253265,413.581085 150.207932,410.222107 
	C150.158890,406.590851 152.157684,405.201050 155.575272,405.253204 
	C161.899231,405.349823 168.224091,405.386169 174.961029,405.461487 
	C175.373474,405.475372 175.460709,405.541595 175.495605,405.583801 
M135.967270,376.327881 
	C133.546829,380.212036 129.582611,383.881348 129.006424,388.022095 
	C127.506462,398.801422 126.765976,409.811188 127.118774,420.683716 
	C127.396545,429.243805 131.131454,437.135651 139.690002,440.821930 
	C148.278870,444.521271 157.139511,444.113281 165.916321,440.652557 
	C172.337219,438.120789 174.543869,433.483673 174.129868,426.901062 
	C173.839249,422.280579 173.963974,417.625610 174.081284,412.990540 
	C174.172409,409.390961 172.616989,407.792572 169.019226,407.887634 
	C165.190918,407.988800 161.319901,407.586578 157.543900,408.040039 
	C155.905106,408.236847 154.457321,410.024323 152.922775,411.089294 
	C154.272888,412.412994 155.483002,414.652435 157.000000,414.884338 
	C161.129486,415.515594 162.869949,417.558777 162.805954,421.534485 
	C162.768402,423.865326 163.154099,426.291290 162.622192,428.499268 
	C162.156708,430.431610 161.114777,432.788483 159.569366,433.803375 
	C151.231247,439.279297 139.247650,433.998779 138.205093,424.066376 
	C137.270920,415.166534 137.301834,406.137390 137.401535,397.170807 
	C137.441116,393.610748 138.128143,389.712799 139.734482,386.593964 
	C142.316086,381.581635 147.156525,379.666962 152.807724,380.164459 
	C157.908157,380.613495 161.029480,383.529633 162.377090,388.312469 
	C163.467773,392.183502 166.480255,393.025665 169.318527,391.711578 
	C170.804047,391.023804 171.581818,387.889832 171.826111,385.762726 
	C171.987747,384.355255 170.840897,382.633270 169.926880,381.292786 
	C163.255890,371.508850 147.861420,369.032257 135.967270,376.327881 
z"/>
<path fill="#FEE8C0" opacity="1.000000" stroke="none" 
	d="
M265.794556,154.294617 
	C264.397888,158.189682 263.164093,162.486115 260.874329,166.116562 
	C256.025574,173.804337 250.707199,181.203400 245.376389,188.572556 
	C244.429993,189.880829 242.492172,190.471924 240.978867,191.104340 
	C242.888016,187.392349 244.830460,183.970230 246.859497,180.203064 
	C251.807388,173.041321 256.652405,166.212906 261.541229,159.415985 
	C262.782257,157.690582 264.162598,156.065430 265.794556,154.294617 
z"/>
<path fill="#FEE8C0" opacity="1.000000" stroke="none" 
	d="
M277.761627,136.301819 
	C278.795776,140.321548 276.740021,142.865219 272.914856,144.548264 
	C274.185272,141.795181 275.819519,139.102432 277.761627,136.301819 
z"/>
<path fill="#FEE8C0" opacity="1.000000" stroke="none" 
	d="
M272.139771,144.651245 
	C273.109711,147.486176 272.725128,149.848312 268.911377,150.532532 
	C269.624023,148.548019 270.717896,146.633926 272.139771,144.651245 
z"/>
<path fill="#FCD8A2" opacity="1.000000" stroke="none" 
	d="
M365.627502,126.332260 
	C365.225616,125.717545 365.086639,124.930794 364.917114,123.751419 
	C365.221161,124.292610 365.555756,125.226418 365.627502,126.332260 
z"/>
<path fill="#FEE8C0" opacity="1.000000" stroke="none" 
	d="
M268.122101,150.772766 
	C267.998535,151.625107 267.590240,152.597229 266.811646,153.553497 
	C266.906708,152.655945 267.372040,151.774246 268.122101,150.772766 
z"/>
<path fill="#F2AE5F" opacity="1.000000" stroke="none" 
	d="
M239.228058,191.225739 
	C239.196976,192.253036 238.891907,193.055328 238.358414,194.112671 
	C237.194962,192.746063 236.259933,191.124405 235.431793,189.127563 
	C236.677155,189.501846 237.815613,190.251297 239.228058,191.225739 
z"/>
<path fill="#F2AE5F" opacity="1.000000" stroke="none" 
	d="
M234.033218,60.571774 
	C233.552399,60.671776 232.996323,60.543163 232.220093,60.223671 
	C232.652634,60.136242 233.305283,60.239700 234.033218,60.571774 
z"/>
<path fill="#FEEBC6" opacity="1.000000" stroke="none" 
	d="
M186.486633,403.638214 
	C186.660492,401.668121 186.694336,399.937744 187.336029,398.473846 
	C190.078400,392.217651 199.261887,388.187500 208.339554,389.081390 
	C216.272705,389.862610 221.879288,394.595917 223.354034,402.098053 
	C223.894409,404.847015 223.938873,407.710663 224.028961,410.527802 
	C224.336746,420.153809 224.434219,429.788544 224.891586,439.406647 
	C225.055939,442.862915 223.913834,444.540497 220.492798,444.293457 
	C217.546555,444.080719 214.627258,443.503082 211.681503,443.272736 
	C210.123672,443.150940 208.374344,443.028534 206.987518,443.589233 
	C200.634201,446.157928 194.622528,446.377350 189.388565,441.323975 
	C183.859528,435.985687 182.858734,429.335602 185.552490,422.485901 
	C188.048935,416.137909 193.237259,412.658936 200.123856,411.981598 
	C201.445816,411.851593 202.781479,411.867371 204.109116,411.787384 
	C206.636826,411.635040 209.722260,411.620453 209.583313,408.221924 
	C209.479324,405.678650 208.714020,402.116577 206.973297,401.015198 
	C205.566574,400.125183 201.675049,401.573364 199.926743,403.143433 
	C196.297897,406.402283 191.205414,407.124329 186.486633,403.638214 
M207.803574,419.973969 
	C206.545151,420.034912 205.286728,420.095825 203.283936,420.450409 
	C202.504517,420.593201 201.725113,420.735962 200.959778,420.181549 
	C201.967468,418.659973 202.975159,417.138397 204.018692,415.562683 
	C198.325851,413.441803 194.417923,416.275818 190.824081,419.660065 
	C186.812561,423.437683 185.966812,431.889191 188.941345,436.381836 
	C192.110840,441.168915 198.814209,443.992462 203.598434,441.762177 
	C207.502090,439.942444 210.851898,439.663513 214.935120,441.164795 
	C219.662598,442.903015 221.834320,440.778809 221.322662,435.740356 
	C221.139648,433.938354 220.542511,432.150787 220.559921,430.360779 
	C220.640793,422.045319 220.845383,413.730652 221.056625,405.416992 
	C221.201035,399.733582 218.306168,395.390442 213.453629,393.673859 
	C209.078903,392.126312 203.952255,391.982849 199.236908,392.323456 
	C194.556595,392.661499 190.181976,398.057495 189.911636,402.255890 
	C194.664200,403.511627 195.111862,403.400909 198.708206,400.080414 
	C202.162048,396.891418 209.659607,396.562927 210.530090,399.907135 
	C211.527847,403.740356 212.193695,408.497742 210.753632,411.901703 
	C209.186859,415.605225 209.376709,417.700409 211.486557,420.821045 
	C215.320023,426.491089 211.571182,435.720398 205.027725,437.356750 
	C201.986832,438.117218 199.147781,438.034088 200.375946,433.640411 
	C204.198318,434.518158 207.875748,435.011047 210.059677,429.727173 
	C209.851273,427.113037 209.642868,424.498871 209.049911,421.342651 
	C208.719772,421.053650 208.389648,420.764648 207.803574,419.973969 
z"/>
<path fill="#EF8718" opacity="1.000000" stroke="none" 
	d="
M226.137726,412.433380 
	C226.768387,412.891846 227.866882,413.836639 227.836060,414.743042 
	C227.633163,420.707153 227.186859,426.663055 226.508911,432.827759 
	C226.159668,426.323273 226.121445,419.612640 226.137726,412.433380 
z"/>
<path fill="#EF8718" opacity="1.000000" stroke="none" 
	d="
M226.996887,439.379150 
	C227.251999,440.227478 227.484848,441.480621 227.448242,442.872253 
	C227.110748,441.935181 227.042694,440.859589 226.996887,439.379150 
z"/>
<path fill="#EF8718" opacity="1.000000" stroke="none" 
	d="
M226.190399,435.232544 
	C226.515030,435.528229 226.838715,436.109955 227.009277,436.881653 
	C226.633911,436.553955 226.411697,436.036255 226.190399,435.232544 
z"/>
<path fill="#FEF9E2" opacity="1.000000" stroke="none" 
	d="
M232.909576,65.647583 
	C229.423706,65.345886 225.907089,64.124039 222.376495,64.082275 
	C205.106415,63.878014 187.832489,63.953247 170.560303,64.024651 
	C167.928986,64.035538 165.299713,64.543800 162.236755,64.879608 
	C164.096725,63.952396 166.352036,62.238022 168.689041,62.118301 
	C175.969208,61.745369 183.280304,61.972530 190.579407,61.974026 
	C202.523483,61.976471 214.471832,61.822147 226.407715,62.137867 
	C228.588699,62.195557 230.718781,64.177650 232.909576,65.647583 
z"/>
<path fill="#FEF9E2" opacity="1.000000" stroke="none" 
	d="
M233.037933,189.606888 
	C232.789642,188.751007 232.588394,187.493988 232.675339,186.109802 
	C233.003998,187.057022 233.044479,188.131378 233.037933,189.606888 
z"/>
<path fill="#FEF9E2" opacity="1.000000" stroke="none" 
	d="
M234.058990,195.626404 
	C233.624512,195.106995 233.174438,194.267151 232.915192,193.199417 
	C233.418472,193.749664 233.730942,194.527802 234.058990,195.626404 
z"/>
<path fill="#FEFDF3" opacity="1.000000" stroke="none" 
	d="
M314.888214,419.999756 
	C314.905182,412.345398 314.948334,405.190918 314.929596,398.036591 
	C314.920807,394.674561 315.710876,392.053894 319.759064,391.919495 
	C323.741882,391.787323 324.292450,394.346375 324.344604,397.501495 
	C324.561615,410.629608 324.807739,423.757477 325.121185,436.883575 
	C325.211182,440.651398 323.655792,442.350922 319.795868,442.309753 
	C316.052368,442.269775 314.851807,440.360535 314.887299,436.971313 
	C314.944794,431.481384 314.894073,425.990326 314.888214,419.999756 
z"/>
<path fill="#FEFDF3" opacity="1.000000" stroke="none" 
	d="
M323.832275,377.793243 
	C321.234802,378.430145 318.776123,379.266724 316.587982,378.809357 
	C315.863800,378.657959 314.904358,374.477936 315.720337,373.384308 
	C316.801117,371.935760 319.664764,370.838379 321.502136,371.145538 
	C324.899658,371.713593 325.898041,374.272247 323.832275,377.793243 
z"/>
<path fill="#FEF9E2" opacity="1.000000" stroke="none" 
	d="
M336.845581,323.559143 
	C322.385315,323.933960 307.724396,324.027191 293.063995,323.976013 
	C291.520752,323.970581 289.980469,323.114349 288.199585,322.342773 
	C302.323792,322.028046 316.687469,321.979248 331.050232,322.072754 
	C332.917633,322.084930 334.780243,322.830261 336.845581,323.559143 
z"/>
<path fill="#FEF9E2" opacity="1.000000" stroke="none" 
	d="
M366.747528,320.173279 
	C369.644104,322.247681 369.104736,323.682007 365.826202,323.952209 
	C363.195374,324.169006 360.532410,323.996063 357.423157,323.955566 
	C360.114594,322.731110 363.266632,321.547150 366.747528,320.173279 
z"/>
<path fill="#FEFEF8" opacity="1.000000" stroke="none" 
	d="
M263.888855,441.082184 
	C263.563751,438.983765 262.983856,436.888519 262.958008,434.786407 
	C262.849670,425.986237 263.062225,417.180298 262.854523,408.383667 
	C262.694580,401.609741 259.367798,398.302124 254.021606,399.244476 
	C249.838699,399.981750 247.088913,402.171906 247.113358,406.914001 
	C247.163834,416.711548 247.276001,426.515503 246.943863,436.302643 
	C246.876328,438.292938 244.962814,440.220612 243.218628,441.987000 
	C241.564865,441.637939 240.592789,441.479004 239.620712,441.320068 
	C238.714111,439.816376 237.043701,438.324310 237.020645,436.807190 
	C236.819901,423.598480 236.793228,410.382782 237.066879,397.176422 
	C237.103058,395.429443 239.116287,393.723480 240.767822,392.311707 
	C243.244888,393.062561 245.168015,393.500214 247.091125,393.937836 
	C249.666458,393.514160 252.276291,393.236267 254.809891,392.636353 
	C260.011871,391.404510 265.160767,390.969391 269.400024,394.864594 
	C272.295746,397.525330 274.827850,397.002441 277.351807,394.842682 
	C282.178436,390.712433 287.688934,390.841522 292.824463,393.188416 
	C297.601562,395.371521 298.247498,400.399963 298.262421,405.236542 
	C298.294739,415.701965 298.307190,426.167480 298.312744,436.632935 
	C298.314270,439.487000 297.983856,442.187561 294.153259,442.048920 
	C290.339661,441.910950 289.675018,439.319550 289.690094,436.162140 
	C289.729034,427.995941 289.939850,419.819122 289.585114,411.668182 
	C289.447083,408.497101 288.345276,405.216644 287.018646,402.286530 
	C285.326233,398.548370 281.376770,398.052887 278.456024,399.613373 
	C276.113068,400.865173 273.491333,404.093964 273.365021,406.566589 
	C272.796051,417.705017 273.072205,428.886627 272.563232,440.521759 
	C269.351471,441.021301 266.620178,441.051727 263.888855,441.082184 
z"/>
<path fill="#FEF9E2" opacity="1.000000" stroke="none" 
	d="
M264.118073,441.376892 
	C266.620178,441.051727 269.351471,441.021301 272.533356,440.988861 
	C270.330444,444.057983 267.393585,443.554993 264.118073,441.376892 
z"/>
<path fill="#FEF9E2" opacity="1.000000" stroke="none" 
	d="
M246.883484,393.630890 
	C245.168015,393.500214 243.244888,393.062561 241.165649,392.291321 
	C242.898285,392.413147 244.787064,392.868561 246.883484,393.630890 
z"/>
<path fill="#FEF8E8" opacity="1.000000" stroke="none" 
	d="
M239.820740,441.536987 
	C240.592789,441.479004 241.564865,441.637939 242.824188,442.047668 
	C242.081207,442.116913 241.050995,441.935394 239.820740,441.536987 
z"/>
<path fill="#FEFDF5" opacity="1.000000" stroke="none" 
	d="
M136.249023,376.084229 
	C147.861420,369.032257 163.255890,371.508850 169.926880,381.292786 
	C170.840897,382.633270 171.987747,384.355255 171.826111,385.762726 
	C171.581818,387.889832 170.804047,391.023804 169.318527,391.711578 
	C166.480255,393.025665 163.467773,392.183502 162.377090,388.312469 
	C161.029480,383.529633 157.908157,380.613495 152.807724,380.164459 
	C147.156525,379.666962 142.316086,381.581635 139.734482,386.593964 
	C138.128143,389.712799 137.441116,393.610748 137.401535,397.170807 
	C137.301834,406.137390 137.270920,415.166534 138.205093,424.066376 
	C139.247650,433.998779 151.231247,439.279297 159.569366,433.803375 
	C161.114777,432.788483 162.156708,430.431610 162.622192,428.499268 
	C163.154099,426.291290 162.768402,423.865326 162.805954,421.534485 
	C162.869949,417.558777 161.129486,415.515594 157.000000,414.884338 
	C155.483002,414.652435 154.272888,412.412994 152.922775,411.089294 
	C154.457321,410.024323 155.905106,408.236847 157.543900,408.040039 
	C161.319901,407.586578 165.190918,407.988800 169.019226,407.887634 
	C172.616989,407.792572 174.172409,409.390961 174.081284,412.990540 
	C173.963974,417.625610 173.839249,422.280579 174.129868,426.901062 
	C174.543869,433.483673 172.337219,438.120789 165.916321,440.652557 
	C157.139511,444.113281 148.278870,444.521271 139.690002,440.821930 
	C131.131454,437.135651 127.396545,429.243805 127.118774,420.683716 
	C126.765976,409.811188 127.506462,398.801422 129.006424,388.022095 
	C129.582611,383.881348 133.546829,380.212036 136.249023,376.084229 
z"/>
<path fill="#FDFDF8" opacity="1.000000" stroke="none" 
	d="
M199.582016,433.554260 
	C199.147781,438.034088 201.986832,438.117218 205.027725,437.356750 
	C211.571182,435.720398 215.320023,426.491089 211.486557,420.821045 
	C209.376709,417.700409 209.186859,415.605225 210.753632,411.901703 
	C212.193695,408.497742 211.527847,403.740356 210.530090,399.907135 
	C209.659607,396.562927 202.162048,396.891418 198.708206,400.080414 
	C195.111862,403.400909 194.664200,403.511627 189.911636,402.255890 
	C190.181976,398.057495 194.556595,392.661499 199.236908,392.323456 
	C203.952255,391.982849 209.078903,392.126312 213.453629,393.673859 
	C218.306168,395.390442 221.201035,399.733582 221.056625,405.416992 
	C220.845383,413.730652 220.640793,422.045319 220.559921,430.360779 
	C220.542511,432.150787 221.139648,433.938354 221.322662,435.740356 
	C221.834320,440.778809 219.662598,442.903015 214.935120,441.164795 
	C210.851898,439.663513 207.502090,439.942444 203.598434,441.762177 
	C198.814209,443.992462 192.110840,441.168915 188.941345,436.381836 
	C185.966812,431.889191 186.812561,423.437683 190.824081,419.660065 
	C194.417923,416.275818 198.325851,413.441803 204.018692,415.562683 
	C202.975159,417.138397 201.967468,418.659973 200.841461,420.765747 
	C200.323334,421.669922 199.923508,421.989838 199.140381,422.335388 
	C194.639557,426.850800 194.950546,431.871796 199.486084,433.514313 
	C199.523376,433.499634 199.582016,433.554260 199.582016,433.554260 
z"/>
<path fill="#EE9D41" opacity="1.000000" stroke="none" 
	d="
M199.523697,422.309784 
	C199.923508,421.989838 200.323334,421.669922 200.834427,421.114349 
	C201.725113,420.735962 202.504517,420.593201 203.642517,420.585632 
	C203.996704,420.909088 203.992340,421.097321 203.892456,421.610077 
	C202.006271,424.776459 199.085526,427.773743 202.319519,430.915314 
	C203.106171,431.679443 206.570175,429.687439 208.984818,429.271484 
	C209.294403,429.781921 209.422302,429.983643 209.550201,430.185364 
	C207.875748,435.011047 204.198318,434.518158 199.978973,433.597351 
	C199.582016,433.554260 199.523376,433.499634 199.429199,433.097778 
	C199.397919,429.233887 199.460815,425.771820 199.523697,422.309784 
z"/>
<path fill="#F4C993" opacity="1.000000" stroke="none" 
	d="
M209.804932,429.956268 
	C209.422302,429.983643 209.294403,429.781921 209.040100,428.852753 
	C208.875885,426.442505 208.838074,424.759735 208.954773,422.776733 
	C209.217667,422.279266 209.326065,422.082001 209.434464,421.884735 
	C209.642868,424.498871 209.851273,427.113037 209.804932,429.956268 
z"/>
<path fill="#F4C993" opacity="1.000000" stroke="none" 
	d="
M204.014694,420.438843 
	C205.286728,420.095825 206.545151,420.034912 207.650024,420.381348 
	C207.314651,420.903076 207.132858,421.017365 206.579514,421.091309 
	C205.467972,421.129150 204.727966,421.207336 203.987961,421.285522 
	C203.992340,421.097321 203.996704,420.909088 204.014694,420.438843 
z"/>
<path fill="#EE9D41" opacity="1.000000" stroke="none" 
	d="
M206.951050,421.131622 
	C207.132858,421.017365 207.314651,420.903076 207.777985,420.632202 
	C208.389648,420.764648 208.719772,421.053650 209.242188,421.613708 
	C209.326065,422.082001 209.217667,422.279266 208.696198,422.667450 
	C207.839111,422.282776 207.395081,421.707214 206.951050,421.131622 
z"/>
<path fill="#FEEBC6" opacity="1.000000" stroke="none" 
	d="
M199.140381,422.335388 
	C199.460815,425.771820 199.397919,429.233887 199.391922,433.112457 
	C194.950546,431.871796 194.639557,426.850800 199.140381,422.335388 
z"/>
<path fill="#EF8718" opacity="1.000000" stroke="none" 
	d="
M206.579514,421.091309 
	C207.395081,421.707214 207.839111,422.282776 208.541702,422.967651 
	C208.838074,424.759735 208.875885,426.442505 208.858398,428.544006 
	C206.570175,429.687439 203.106171,431.679443 202.319519,430.915314 
	C199.085526,427.773743 202.006271,424.776459 203.892456,421.610077 
	C204.727966,421.207336 205.467972,421.129150 206.579514,421.091309 
z"/>
</svg>